<?xml version="1.0" encoding="utf-8"?>
<!-- Generator: Adobe Illustrator 23.0.1, SVG Export Plug-In . SVG Version: 6.00 Build 0)  -->
<svg version="1.1" id="Layer_1" xmlns="http://www.w3.org/2000/svg" xmlns:xlink="http://www.w3.org/1999/xlink" x="0px" y="0px"
	 viewBox="0 0 208 108" style="enable-background:new 0 0 208 108;" xml:space="preserve">
<style type="text/css">
	.st0{fill:#1F79FF;}
	.st1{fill:#FFFFFF;}
	.st2{fill:#414042;}
</style>
<g>
	<path class="st0" d="M119,54.5c0,27.9-22.6,50.6-50.5,50.6C40.7,105.1,18,82.5,18,54.8c0-28,22.5-50.7,50.5-50.7
		C96.4,4,119,26.6,119,54.5z M107.1,49.5c-0.1-3.2-0.8-6.2-2.9-8.7c-6-6.7-12-13.4-18.2-20c-3.1-3.3-7.2-4.5-11.6-3.6
		C65.7,19,57.1,21,48.5,23c-4.6,1.1-7.9,4.1-9.4,8.6c-2.8,8.3-5.4,16.7-8,25.1c-1.3,4.4-0.6,8.7,2.4,12.2c5.9,6.8,12,13.5,18.3,20.1
		c3.1,3.3,7.2,4.4,11.6,3.5c8.6-1.8,17.1-3.7,25.6-5.7c4.8-1.1,8.1-4.3,9.6-8.9c2.7-8.2,5.2-16.5,7.8-24.7
		C106.9,52,107.1,50.8,107.1,49.5z"/>
	<path class="st1" d="M107.1,49.5c0,1.3-0.2,2.5-0.5,3.7c-2.6,8.2-5.1,16.5-7.8,24.7c-1.5,4.7-4.8,7.8-9.6,8.9
		c-8.5,2-17,3.9-25.6,5.7c-4.4,0.9-8.5-0.3-11.6-3.5c-6.2-6.6-12.3-13.2-18.3-20.1c-3-3.5-3.8-7.8-2.4-12.2c2.5-8.4,5.2-16.8,8-25.1
		c1.5-4.5,4.8-7.5,9.4-8.6c8.6-2.1,17.2-4,25.9-5.8c4.4-0.9,8.5,0.4,11.6,3.6c6.2,6.5,12.2,13.2,18.2,20
		C106.3,43.3,107,46.3,107.1,49.5z"/>
</g>
<g>
	<g>
		<path class="st2" d="M90.8,86.3c-1,0-2-0.1-2.9-0.4c-1-0.3-1.8-0.6-2.5-1.2c-0.7-0.5-1.3-1.2-1.6-2.1c-0.4-0.9-0.5-1.9-0.3-2.9
			l0.6-3.8h3.7c1.2,0,1.8,0.5,2.1,1c0.4,0.5,0.5,1.2,0.4,2l-0.1,0.8c0,0,0,0.1,0.2,0.3c0.3,0.2,0.7,0.3,1.2,0.3
			c0.5,0,0.9-0.1,1.3-0.4c0.4-0.3,0.5-0.5,0.5-0.6l0.5-2.9c0.1-0.6,0-1.1-0.2-1.5c-0.3-0.5-0.8-0.9-1.3-1.2c-0.7-0.5-1.4-0.8-2-1.2
			c-0.8-0.4-1.5-0.8-2.2-1.5c-0.6-0.6-1.2-1.3-1.6-2.2c-0.4-1-0.5-2.1-0.3-3.3l0.5-3.2c0.2-1.1,0.6-2.1,1.1-2.9c0.6-0.8,1.3-1.5,2-2
			c0.8-0.5,1.6-0.9,2.6-1.1c0.9-0.2,1.9-0.4,2.9-0.4c1,0,1.9,0.1,2.8,0.4c0.9,0.3,1.7,0.7,2.3,1.2c0.6,0.5,1.1,1.2,1.5,2.1
			c0.3,0.8,0.4,1.8,0.2,2.9l-0.6,3.8h-3.5c-0.8,0-1.5-0.3-2-0.8c-0.4-0.4-0.8-1-0.6-2.1l0.1-0.8c0.1-0.3,0-0.4-0.2-0.5
			C95.3,62,95,62,94.7,62c-0.4,0-0.7,0.1-0.9,0.3c-0.4,0.3-0.4,0.4-0.4,0.6l-0.5,2.9c0,0.3,0,0.5,0.3,0.7c0.3,0.3,0.7,0.7,1.4,1.1
			l0.4,0.2c0.5,0.3,1.1,0.7,1.7,1.1c0.6,0.4,1.4,1,2.1,1.6c0.7,0.7,1.2,1.4,1.6,2.2c0.4,0.9,0.5,1.9,0.3,3L99.9,80
			c-0.2,1.2-0.6,2.1-1.2,2.9c-0.7,0.8-1.4,1.5-2.2,1.9c-0.8,0.5-1.7,0.8-2.7,1.1C92.8,86.1,91.8,86.3,90.8,86.3z"/>
		<path class="st1" d="M95.4,56.9c0.9,0,1.8,0.1,2.6,0.4c0.8,0.2,1.5,0.6,2.1,1.1c0.6,0.5,1,1.1,1.2,1.8c0.3,0.7,0.3,1.5,0.2,2.5
			l-0.5,3.2h-2.8c-0.6,0-1.1-0.2-1.5-0.6c-0.4-0.4-0.5-0.9-0.4-1.5l0.1-0.8c0.1-0.5-0.1-0.9-0.4-1.2c-0.4-0.3-0.8-0.4-1.3-0.4
			c-0.5,0-1,0.1-1.4,0.5c-0.4,0.3-0.6,0.6-0.7,1l-0.5,2.9c-0.1,0.5,0.1,1,0.5,1.4c0.4,0.4,0.9,0.8,1.6,1.2c0.6,0.4,1.3,0.8,2,1.3
			c0.7,0.5,1.4,1,2,1.5s1.1,1.2,1.4,2c0.3,0.7,0.4,1.6,0.3,2.6l-0.7,4.3c-0.2,1-0.5,1.8-1.1,2.5c-0.6,0.7-1.2,1.3-2,1.8
			c-0.8,0.5-1.6,0.8-2.5,1c-0.9,0.2-1.9,0.3-2.8,0.3c-0.9,0-1.8-0.1-2.7-0.3c-0.9-0.2-1.6-0.6-2.2-1c-0.6-0.5-1.1-1.1-1.4-1.8
			c-0.3-0.7-0.4-1.5-0.2-2.5l0.5-3.2h3.1c0.7,0,1.2,0.2,1.4,0.6c0.3,0.4,0.4,0.9,0.3,1.5l-0.1,0.8c-0.1,0.4,0.1,0.8,0.5,1.1
			c0.4,0.3,1,0.5,1.6,0.5s1.2-0.2,1.7-0.5c0.5-0.4,0.8-0.7,0.8-1.1l0.5-2.9c0.1-0.8,0-1.5-0.4-2c-0.4-0.5-0.9-1-1.5-1.4
			c-0.6-0.4-1.3-0.8-2.1-1.2c-0.8-0.4-1.4-0.8-2-1.4c-0.6-0.5-1.1-1.2-1.4-2c-0.3-0.8-0.4-1.7-0.2-2.9l0.5-3.2c0.2-1,0.5-1.9,1-2.6
			c0.5-0.7,1.1-1.3,1.8-1.8c0.7-0.5,1.5-0.8,2.4-1C93.6,57,94.5,56.9,95.4,56.9 M95.4,55.4c-1.1,0-2.1,0.1-3.1,0.4
			c-1.1,0.3-2,0.7-2.9,1.2c-0.9,0.5-1.6,1.3-2.2,2.2c-0.6,0.9-1.1,2-1.3,3.2l-0.5,3.2c-0.2,1.4-0.1,2.7,0.3,3.7l0,0l0,0
			c0.5,1,1.1,1.8,1.8,2.4c0.7,0.7,1.5,1.2,2.4,1.6c0.6,0.3,1.2,0.7,1.9,1.1c0.4,0.3,0.8,0.6,1.1,1c0.1,0.1,0.2,0.4,0.1,0.9l-0.4,2.8
			c0,0-0.1,0.1-0.3,0.2c-0.2,0.2-0.5,0.2-0.8,0.2c-0.2,0-0.4,0-0.6-0.1l0.1-0.4c0.2-1,0-1.8-0.5-2.6c-0.3-0.5-1.1-1.3-2.7-1.3h-3.1
			h-1.3l-0.2,1.3l-0.5,3.2c-0.2,1.2-0.1,2.3,0.3,3.3c0.4,1,1,1.8,1.9,2.4c0.8,0.6,1.7,1,2.7,1.3c0.9,0.3,2,0.4,3.1,0.4
			c1.1,0,2.1-0.1,3.1-0.4c1.1-0.3,2.1-0.7,2.9-1.2c0.9-0.5,1.6-1.2,2.4-2.1c0.7-0.9,1.2-1.9,1.4-3.2l0.7-4.4
			c0.2-1.3,0.1-2.4-0.4-3.4c-0.4-0.9-1-1.7-1.8-2.4c-0.7-0.7-1.5-1.2-2.2-1.7c-0.6-0.4-1.1-0.7-1.7-1.1l-0.4-0.2
			c-0.6-0.4-1.1-0.8-1.3-1c0,0,0,0,0-0.1c0,0,0,0,0,0c0,0,0,0,0,0L94,63c0,0,0,0,0.1-0.1l0,0l0,0c0,0,0.1-0.1,0.4-0.1
			c0.1,0,0.2,0,0.2,0l-0.1,0.7c-0.2,1.1,0.1,2.1,0.8,2.8c0.7,0.7,1.5,1,2.6,1h2.8h1.3l0.2-1.3l0.5-3.2c0.2-1.2,0.1-2.3-0.2-3.3
			c-0.4-1-0.9-1.8-1.7-2.4c-0.7-0.6-1.6-1.1-2.6-1.3C97.5,55.5,96.5,55.4,95.4,55.4L95.4,55.4z"/>
	</g>
	<g>
		<path class="st2" d="M106.7,86.1c-1,0-1.9-0.3-2.8-0.7c-0.9-0.5-1.5-1-1.9-1.8c-0.4-0.8-0.6-1.8-0.4-3l1.4-8.9h-2.2l0.5-3
			c0.2-1.1,0.5-1.9,1-2.4c0.4-0.4,1-0.6,1.7-0.7l0.7-4.2c0.2-1.2,0.7-2.1,1.5-2.7c0.7-0.6,1.5-1,2.2-1.2c0.8-0.2,1.6-0.4,2.5-0.4
			c0.1,0,0.3,0,0.4,0l0.8,0l-1.3,8.4h2.6l-0.4,2.8c-0.2,1.2-0.7,2.1-1.4,2.5c-0.5,0.3-1.1,0.6-1.7,0.7l-1.3,8.1c0,0.2,0,0.3,0.1,0.3
			c0.1,0.1,0.5,0.2,0.9,0.2c0.1,0,0.2,0,0.3,0c0.1,0,0.1,0,0.2,0c0.1,0,0.2,0,0.3,0c0.2,0,0.4,0.1,0.5,0.1c0.3,0.1,0.6,0.3,0.7,0.6
			c0.1,0.3,0.1,0.7,0.1,0.9l-0.3,1.9c-0.1,0.5-0.2,1-0.4,1.2c-0.2,0.4-0.6,0.6-1.2,0.8c-0.9,0.2-1.7,0.3-2.6,0.3
			C107,86.1,106.8,86.1,106.7,86.1z"/>
		<path class="st1" d="M110.9,58c0.1,0,0.2,0,0.4,0l-1.3,8.4h2.6l-0.3,2c-0.2,1-0.5,1.7-1.1,2c-0.6,0.4-1.2,0.6-2,0.6l-1.4,8.7
			c-0.1,0.5,0.1,0.9,0.5,1.1c0.3,0.2,0.8,0.3,1.2,0.3c0.1,0,0.3,0,0.4,0c0.1,0,0.2,0,0.3,0c0,0,0.1,0,0.1,0c0.1,0,0.2,0,0.2,0
			c0.1,0,0.2,0.1,0.2,0.2c0.1,0.1,0.1,0.3,0,0.5l-0.3,1.9c-0.1,0.5-0.2,0.8-0.3,1c-0.1,0.2-0.3,0.3-0.8,0.5
			c-0.8,0.2-1.6,0.2-2.4,0.2c-0.2,0-0.3,0-0.5,0c-0.9,0-1.7-0.2-2.4-0.6c-0.7-0.4-1.2-0.8-1.6-1.5c-0.4-0.7-0.5-1.5-0.3-2.6l1.5-9.8
			h-2.2l0.3-2.1c0.2-1,0.4-1.6,0.8-1.9c0.4-0.3,1-0.5,1.8-0.5l0.5-3.1l0.3-1.7c0.2-1,0.6-1.8,1.2-2.3c0.6-0.5,1.3-0.9,2-1.1
			C109.3,58.1,110,58,110.9,58 M110.9,56.5c-1,0-1.9,0.1-2.8,0.4c-0.8,0.2-1.6,0.7-2.4,1.3c-0.9,0.7-1.5,1.8-1.7,3.2l-0.3,1.7
			l-0.3,2c-0.6,0.1-1.1,0.4-1.5,0.7l0,0l0,0c-0.6,0.6-1,1.5-1.3,2.8l-0.3,2.2l-0.3,1.7h1.8h0.5l-1.3,8c-0.2,1.4-0.1,2.6,0.5,3.5
			c0.5,0.9,1.2,1.6,2.2,2.1c0.9,0.5,1.9,0.7,3.1,0.8c0.2,0,0.3,0,0.5,0c0.9,0,1.8-0.1,2.7-0.3l0.1,0l0.1,0c0.8-0.2,1.3-0.6,1.6-1.1
			c0.2-0.4,0.4-0.9,0.5-1.5l0.3-1.9c0.1-0.4,0.1-0.9-0.1-1.4c-0.2-0.5-0.6-0.9-1.1-1.1c-0.1,0-0.4-0.1-0.7-0.1c-0.1,0-0.3,0-0.4,0
			l0,0l-0.1,0c-0.1,0-0.2,0-0.2,0c-0.1,0-0.2,0-0.2,0l1.1-7.2c0.5-0.1,1-0.4,1.5-0.7c0.9-0.6,1.5-1.6,1.8-3l0.3-2l0.3-1.7h-1.7h-0.9
			l1.1-6.7l0.3-1.7l-1.7-0.1C111.2,56.5,111,56.5,110.9,56.5L110.9,56.5z"/>
	</g>
	<g>
		<path class="st2" d="M118.5,86.1c-1,0-1.9-0.1-2.7-0.4c-0.9-0.3-1.7-0.7-2.3-1.2c-0.7-0.6-1.2-1.3-1.5-2.1
			c-0.3-0.8-0.4-1.8-0.2-2.9l1.2-7.7c0.2-1.1,0.5-2,1-2.8c0.5-0.8,1.2-1.4,2-2c0.7-0.5,1.5-0.8,2.5-1.2l0,0l0,0
			c0.9-0.2,1.9-0.3,2.9-0.3c0.9,0,1.8,0.1,2.7,0.4c1,0.3,1.7,0.7,2.3,1.3c0.7,0.6,1.1,1.3,1.4,2c0.3,0.9,0.4,1.7,0.2,2.5l-1.4,8.6
			c-0.2,1-0.5,1.8-1,2.5c-0.6,0.8-1.2,1.3-1.9,1.8c-0.7,0.5-1.6,0.8-2.5,1.1C120.4,85.9,119.5,86.1,118.5,86.1z M120.9,71.4
			c-0.1,0-0.2,0-0.4,0.1c-0.1,0-0.2,0.1-0.4,0.1c-0.1,0-0.2,0.1-0.3,0.3c0,0-0.1,0.1-0.1,0.3l-1.2,7.4c0,0.2,0,0.2,0,0.2
			c0,0.1,0.1,0.1,0.1,0.2c0,0,0.1,0,0.2,0.1l0.1,0l0.1,0.1c0,0,0.1,0,0.1,0c0.1,0,0.3,0,0.4-0.1c0.1,0,0.2-0.1,0.3-0.1
			c0.2-0.1,0.2-0.1,0.3-0.2c0.1-0.1,0.1-0.3,0.2-0.5l1.2-7.3c0-0.2,0-0.2,0-0.3c0,0-0.1-0.1-0.1-0.1c0,0,0,0,0,0c0,0-0.1,0-0.1,0
			c0,0-0.1,0-0.1,0l0,0C121,71.4,120.9,71.4,120.9,71.4z"/>
		<path class="st1" d="M121.5,66.3c0.9,0,1.7,0.1,2.5,0.4c0.8,0.3,1.5,0.6,2,1.1c0.5,0.5,1,1,1.2,1.7c0.2,0.7,0.3,1.4,0.2,2.2
			l-1.4,8.6c-0.1,0.8-0.4,1.6-0.9,2.2c-0.5,0.6-1,1.2-1.7,1.6c-0.7,0.4-1.5,0.8-2.3,1c-0.9,0.2-1.7,0.3-2.6,0.3
			c-0.9,0-1.7-0.1-2.5-0.3c-0.8-0.2-1.5-0.6-2-1.1c-0.6-0.5-1-1.1-1.3-1.8c-0.3-0.7-0.3-1.5-0.2-2.5l1.2-7.7c0.2-1,0.5-1.8,0.9-2.5
			c0.5-0.7,1.1-1.3,1.8-1.8c0.7-0.5,1.5-0.8,2.3-1.1C119.7,66.4,120.6,66.3,121.5,66.3 M119.2,80.9c0.2,0,0.4,0,0.6-0.1
			c0.2,0,0.4-0.1,0.6-0.2c0.2-0.1,0.4-0.2,0.5-0.4c0.1-0.2,0.2-0.4,0.3-0.7l1.2-7.4c0-0.3,0-0.5-0.1-0.7c-0.1-0.2-0.2-0.3-0.4-0.4
			c-0.2-0.1-0.3-0.1-0.5-0.2c-0.2,0-0.4-0.1-0.5-0.1c-0.1,0-0.3,0-0.5,0.1c-0.2,0-0.4,0.1-0.6,0.2c-0.2,0.1-0.3,0.2-0.5,0.4
			S119,71.7,119,72l-1.2,7.4c0,0.3,0,0.5,0.1,0.7c0.1,0.2,0.2,0.3,0.3,0.4c0.1,0.1,0.3,0.2,0.5,0.2C118.9,80.8,119,80.9,119.2,80.9
			 M121.5,64.8c-1.1,0-2.1,0.2-3,0.3l-0.1,0l-0.1,0c-1.1,0.3-2,0.8-2.7,1.2c-0.9,0.6-1.6,1.3-2.2,2.2c-0.6,0.9-1,1.9-1.2,3.1
			l-1.2,7.7c-0.2,1.2-0.1,2.3,0.3,3.3c0.3,0.9,0.9,1.7,1.7,2.4c0.7,0.6,1.6,1.1,2.6,1.4c0.9,0.3,1.9,0.4,2.9,0.4
			c1.1,0,2.1-0.1,3-0.4c1.1-0.3,2-0.7,2.8-1.2c0.7-0.5,1.5-1.1,2.1-1.9c0.6-0.8,1-1.8,1.2-2.8l1.4-8.6c0.2-1,0.1-1.9-0.3-2.9
			c-0.3-0.9-0.8-1.6-1.6-2.3c-0.6-0.6-1.5-1.1-2.5-1.4l0,0l0,0C123.5,64.9,122.5,64.8,121.5,64.8L121.5,64.8z M120.5,72.2
			c0.1,0,0.1,0,0.1,0c0,0,0.1,0,0.1,0l-1.1,6.9c0,0.1,0,0.1,0,0.1l-0.1,0c0,0,0,0,0,0c0,0,0,0,0,0c0,0-0.1,0-0.2,0L120.5,72.2
			C120.5,72.3,120.5,72.3,120.5,72.2L120.5,72.2z"/>
	</g>
	<g>
		<path class="st2" d="M126.1,86l0.6-3.5c0.1-0.6,0.3-1.1,0.6-1.5c0.2-0.3,0.5-0.6,0.8-0.8l0.1-0.1l0.1-0.1l0,0c0,0,1.4-8.6,1.4-8.6
			l0,0c-0.3-0.3-0.5-0.6-0.7-0.9c-0.2-0.4-0.3-0.9-0.2-1.5l0.5-3.3h6.2c0.6,0,1,0.2,1.2,0.5c0.1,0.1,0.2,0.2,0.2,0.4
			c0.1-0.1,0.3-0.2,0.5-0.3l0.1-0.1c0.3-0.1,0.7-0.3,1.2-0.4c0.5-0.1,1-0.2,1.6-0.2c0.6,0,0.8,0,1,0.1c0.3,0.1,0.6,0.2,0.8,0.4
			c0.5,0.4,0.5,1,0.4,1.7l-0.5,2.9c0,0.6-0.4,1.1-0.9,1.3c-0.3,0.1-0.5,0.1-0.8,0.1c-0.2,0-0.3,0-0.5-0.1c-0.2-0.1-0.4-0.1-0.6-0.1
			c-0.1,0-0.3,0-0.4,0c-0.4,0-0.9,0.1-1.3,0.3c-0.4,0.2-0.8,0.4-1.1,0.8c-0.3,0.3-0.5,0.7-0.5,1.2c0,0-0.9,5.9-0.9,6c0,0,0,0,0,0
			c0.3,0.2,0.5,0.5,0.7,0.9c0.2,0.5,0.3,1,0.2,1.6l-0.5,3.2H126.1z"/>
		<path class="st1" d="M140.4,66.4c0.5,0,0.8,0,0.9,0c0.2,0,0.4,0.1,0.5,0.2c0.1,0.1,0.2,0.4,0.1,1l-0.5,2.9c0,0.4-0.2,0.6-0.4,0.7
			c-0.2,0.1-0.3,0.1-0.5,0.1c-0.1,0-0.2,0-0.3,0c-0.3-0.1-0.5-0.1-0.8-0.1c-0.2,0-0.3,0-0.5,0c-0.5,0-1.1,0.2-1.5,0.4
			c-0.5,0.2-0.9,0.5-1.3,1c-0.4,0.4-0.6,0.9-0.7,1.6l-0.9,5.9c0,0.2,0,0.4,0,0.5c0.1,0.1,0.1,0.2,0.3,0.3c0.2,0.1,0.3,0.3,0.5,0.6
			c0.1,0.3,0.2,0.7,0.1,1.1l-0.4,2.6H127l0.4-2.6c0.1-0.5,0.2-0.9,0.5-1.1c0.2-0.3,0.5-0.5,0.7-0.6c0.1-0.1,0.3-0.2,0.3-0.3
			c0.1-0.1,0.2-0.3,0.2-0.5l1.4-8.6c0-0.1,0-0.3-0.1-0.4c-0.1-0.1-0.2-0.2-0.3-0.3c-0.2-0.1-0.3-0.4-0.5-0.6s-0.2-0.6-0.1-1.1
			l0.4-2.6h5.6c0.6,0,0.9,0.3,0.8,0.8l-0.1,0.8c0.2-0.2,0.5-0.4,0.8-0.6c0.3-0.1,0.5-0.3,0.9-0.5c0.3-0.1,0.7-0.3,1.2-0.4
			C139.4,66.5,139.9,66.4,140.4,66.4 M140.4,64.9c-0.6,0-1.2,0.1-1.8,0.2c-0.5,0.1-0.9,0.3-1.3,0.4l-0.1,0c-0.3-0.3-0.8-0.6-1.7-0.6
			H130h-1.3l-0.2,1.3l-0.4,2.6c-0.1,0.8,0,1.4,0.2,2c0.1,0.2,0.3,0.6,0.6,0.9l-1.3,8c-0.3,0.2-0.6,0.5-0.9,0.9
			c-0.4,0.5-0.7,1.1-0.8,1.9l-0.4,2.6l-0.3,1.7h1.8h7.8h1.3l0.2-1.3l0.4-2.6c0.1-0.8,0-1.4-0.2-2l0-0.1l0-0.1
			c-0.2-0.3-0.4-0.6-0.6-0.8l0.9-5.6c0.1-0.3,0.2-0.6,0.4-0.8c0.2-0.3,0.5-0.5,0.9-0.6c0.3-0.1,0.7-0.2,1-0.3l0,0l0,0
			c0.1,0,0.2,0,0.3,0c0.2,0,0.3,0,0.5,0.1c0.2,0.1,0.4,0.1,0.6,0.1c0.3,0,0.7-0.1,1-0.2c0.8-0.3,1.4-1.1,1.4-2l0.5-2.8l0,0l0,0
			c0.1-0.5,0.2-1.7-0.7-2.4c-0.2-0.1-0.6-0.4-1.1-0.5C141.3,64.9,141,64.9,140.4,64.9L140.4,64.9z"/>
	</g>
	<g>
		<path class="st2" d="M147.1,86.1c-1,0-1.9-0.1-2.8-0.4c-0.8-0.3-1.6-0.7-2.2-1.3c-0.6-0.6-1.1-1.4-1.3-2.3
			c-0.3-0.8-0.3-1.8-0.1-2.9l1.1-6.8c0.2-1.1,0.5-2,1.1-2.9c0.5-0.9,1.2-1.6,1.9-2.2c0.8-0.6,1.6-1.1,2.6-1.4c1-0.3,2-0.5,2.9-0.5
			c1.1,0,2,0.2,2.9,0.5c0.8,0.3,1.6,0.8,2.2,1.4c0.6,0.6,1.1,1.4,1.4,2.3c0.3,0.9,0.3,1.9,0.2,2.9l-0.3,1.9
			c-0.1,0.8-0.3,1.4-0.6,1.8c-0.4,0.5-1.1,0.8-2.1,0.8l-6.2,0l-0.4,2.7c0,0.1,0,0.2,0,0.2l0.1,0l0.1,0.1c0,0,0.2,0,0.3,0.1
			c0.1,0,0.2,0,0.3,0c0,0,0,0,0,0c0.1,0,0.2,0,0.3,0l0.2,0c0.1,0,0.3-0.1,0.4-0.1c0.2-0.1,0.3-0.1,0.3-0.2c0,0,0.1-0.1,0.1-0.2
			c0.1-0.9,0.6-1.5,1.2-1.9c0.6-0.3,1.3-0.5,2.1-0.5h3.7l-0.5,3.3c-0.2,1-0.5,1.8-1.1,2.5c-0.6,0.7-1.2,1.3-2,1.7
			c-0.7,0.4-1.6,0.8-2.6,1C148.9,86,148,86.1,147.1,86.1z M150.1,72.8l0.1-0.6c0.1-0.3,0-0.6,0-0.6c0-0.1-0.1-0.1-0.1-0.2
			c-0.1-0.1-0.1-0.1-0.2-0.1c-0.1,0-0.2-0.1-0.3-0.1c-0.1,0-0.1,0-0.2,0l-0.2,0c0,0-0.1,0-0.2,0.1l-0.1,0.1
			c-0.1,0.1-0.2,0.2-0.3,0.3c-0.1,0.1-0.2,0.3-0.2,0.6l-0.1,0.4H150.1z"/>
		<path class="st1" d="M150.3,66.2c0.9,0,1.8,0.1,2.6,0.5c0.8,0.3,1.5,0.7,2,1.3c0.5,0.5,0.9,1.2,1.2,2c0.2,0.8,0.3,1.6,0.1,2.6
			l-0.3,1.9c-0.1,0.7-0.3,1.1-0.5,1.4c-0.2,0.3-0.7,0.5-1.5,0.5l-6.8,0l-0.5,3.3c0,0.3,0,0.5,0.1,0.7c0.1,0.2,0.3,0.3,0.4,0.4
			c0.2,0.1,0.4,0.1,0.5,0.2c0.2,0,0.3,0,0.4,0c0.2,0,0.3,0,0.6-0.1s0.4-0.1,0.6-0.2c0.2-0.1,0.4-0.2,0.5-0.4
			c0.2-0.2,0.3-0.4,0.3-0.7v0c0.1-0.6,0.4-1,0.8-1.3c0.5-0.3,1-0.4,1.7-0.4h2.8l-0.4,2.4c-0.1,0.8-0.4,1.6-0.9,2.2
			c-0.5,0.6-1.1,1.2-1.8,1.6c-0.7,0.4-1.5,0.7-2.4,1c-0.9,0.2-1.8,0.3-2.7,0.3c-0.9,0-1.8-0.1-2.5-0.4c-0.8-0.3-1.4-0.7-1.9-1.2
			c-0.5-0.5-0.9-1.1-1.1-1.9c-0.2-0.8-0.3-1.6-0.1-2.6l1.1-6.9c0.2-1,0.5-1.8,1-2.6c0.5-0.8,1.1-1.4,1.8-2c0.7-0.5,1.5-1,2.4-1.3
			C148.5,66.4,149.3,66.2,150.3,66.2 M147.5,73.5h3.3l0.2-1.2c0.1-0.4,0-0.7,0-1c-0.1-0.2-0.2-0.4-0.4-0.5c-0.2-0.1-0.3-0.2-0.5-0.2
			c-0.2,0-0.3-0.1-0.5-0.1c-0.1,0-0.3,0-0.5,0.1c-0.2,0-0.4,0.1-0.6,0.2c-0.2,0.1-0.4,0.3-0.6,0.5s-0.3,0.5-0.3,0.9L147.5,73.5
			 M155.3,77.9L155.3,77.9 M150.3,64.7c-1.1,0-2.1,0.2-3.2,0.5c-1,0.3-1.9,0.8-2.8,1.5c-0.8,0.6-1.5,1.4-2.1,2.4
			c-0.6,1-1,1.9-1.2,3.1l-1.1,6.9c-0.2,1.2-0.2,2.2,0.1,3.2c0.3,1,0.8,1.9,1.5,2.6c0.7,0.7,1.5,1.2,2.5,1.5c0.9,0.3,1.9,0.5,3,0.5
			c1,0,1.9-0.1,3.1-0.4l0,0l0,0c1-0.3,1.9-0.7,2.8-1.1c0.8-0.5,1.6-1.1,2.2-1.9c0.6-0.8,1.1-1.7,1.2-2.9l0.4-2.4l0.3-1.7h-0.3
			c0.3-0.5,0.5-1.1,0.6-1.8l0.3-1.9c0.2-1.1,0.1-2.2-0.2-3.3c-0.3-1-0.8-1.9-1.5-2.6c-0.7-0.7-1.5-1.2-2.5-1.6
			C152.5,64.9,151.5,64.7,150.3,64.7L150.3,64.7z M149.5,72L149.5,72C149.5,72,149.5,72,149.5,72L149.5,72L149.5,72z M155.3,76.4
			L155.3,76.4L155.3,76.4L155.3,76.4z M148.3,77.9l0.8,0c-0.3,0.4-0.5,0.9-0.6,1.4c0,0,0,0,0,0c-0.1,0-0.1,0-0.2,0.1l-0.2,0
			c0,0-0.1,0-0.1,0L148.3,77.9L148.3,77.9z"/>
	</g>
	<g>
		<path class="st2" d="M157.1,86.2c-0.5,0-0.9,0-1.3-0.1c-0.9-0.2-1.1-0.7-1.1-1.1V85l0-0.1l0.4-2.4c0.2-0.8,0.9-0.9,1.2-0.9
			c0.4-0.1,0.8-0.1,1.3-0.1c0.5,0,0.9,0,1.3,0.1c1,0.2,1.1,0.7,1.1,1v0.1l-0.4,2.6c-0.1,0.4-0.4,0.8-1.2,1
			C158,86.2,157.6,86.2,157.1,86.2z"/>
		<path class="st1" d="M157.6,82.2c0.4,0,0.8,0,1.2,0.1c0.3,0.1,0.5,0.2,0.5,0.3l-0.4,2.5c0,0.1-0.2,0.3-0.6,0.3s-0.8,0.1-1.2,0.1
			c-0.4,0-0.8,0-1.2-0.1s-0.5-0.2-0.5-0.3v0l0.4-2.4c0-0.2,0.2-0.3,0.6-0.3C156.8,82.2,157.2,82.2,157.6,82.2 M157.6,80.7
			c-0.5,0-1,0-1.4,0.1c-1.3,0.2-1.7,1-1.8,1.5l0,0l0,0l-0.4,2.4l0,0.1V85c0,0.3,0.1,1.5,1.7,1.8c0.4,0.1,0.9,0.1,1.5,0.1
			c0.5,0,1-0.1,1.4-0.1l0.1,0c1.4-0.2,1.7-1.1,1.8-1.4l0-0.1l0-0.1l0.4-2.5l0-0.1v-0.1c0-0.3-0.1-1.4-1.7-1.7
			C158.6,80.7,158.1,80.7,157.6,80.7L157.6,80.7z"/>
	</g>
	<g>
		<path class="st2" d="M165,86.1c-0.7,0-1.4-0.1-2-0.2c-0.7-0.2-1.2-0.4-1.7-0.9c-0.5-0.4-0.9-1-1.1-1.7c-0.2-0.7-0.2-1.5-0.1-2.4
			l0.8-5c0.1-0.9,0.4-1.6,0.8-2.3c0.4-0.6,0.8-1.1,1.4-1.6c0.6-0.4,1.2-0.7,1.9-0.8c0.8-0.2,1.5-0.3,2.1-0.3c0.7,0,1.4,0.1,2,0.3
			c0.5,0.2,1.1,0.5,1.7,1c0.5,0.4,0.8,0.9,1,1.5c0.2,0.6,0.3,1.3,0.2,1.9l-0.3,2h-3.2c0,0-0.1,0-0.2,0s-0.2,0-0.3,0
			c-0.5,0-0.8-0.2-0.9-0.3c-0.1-0.1-0.3-0.4-0.3-0.8c0-0.1,0-0.3,0-0.5l0-0.2c0-0.1,0-0.1,0-0.2c-0.1,0-0.1,0-0.2,0
			c-0.1,0-0.3,0-0.4,0.1c0,0-0.1,0.1-0.1,0.4l-0.8,5.2c0,0.1,0,0.1,0,0.1c0.1,0,0.1,0,0.3,0c0.2,0,0.3,0,0.5-0.2c0,0,0.1,0,0.1-0.2
			c0.1-0.7,0.4-1.1,0.8-1.4c0.3-0.3,0.9-0.4,1.5-0.4h3.2l-0.4,2.4c-0.1,0.7-0.4,1.4-0.7,2c-0.3,0.5-0.8,1-1.4,1.4
			c-0.6,0.4-1.2,0.6-1.8,0.8C166.3,86,165.7,86.1,165,86.1z"/>
		<path class="st1" d="M167,71.8c0.6,0,1.2,0.1,1.8,0.3c0.5,0.2,1,0.4,1.4,0.8c0.4,0.3,0.7,0.7,0.8,1.2c0.2,0.5,0.2,1,0.1,1.5
			L171,77h-2.6c-0.1,0-0.2,0-0.2,0c-0.1,0-0.3,0-0.4,0c-0.1,0-0.2,0-0.3-0.1c-0.1-0.1-0.1-0.2-0.1-0.3c0-0.1,0-0.3,0.1-0.6
			c0.1-0.5,0-0.8-0.2-0.9c-0.2-0.1-0.5-0.2-0.7-0.2s-0.5,0.1-0.8,0.2c-0.3,0.1-0.4,0.4-0.5,0.9l-0.8,5.2c-0.1,0.4,0,0.7,0.2,0.8
			c0.2,0.1,0.5,0.2,0.8,0.2s0.6-0.1,0.9-0.3c0.3-0.2,0.4-0.4,0.4-0.7c0.1-0.4,0.2-0.7,0.5-0.9c0.2-0.2,0.6-0.3,1-0.3h2.3l-0.2,1.5
			c-0.1,0.7-0.3,1.2-0.6,1.7c-0.3,0.5-0.7,0.9-1.2,1.2c-0.5,0.3-1,0.5-1.6,0.7c-0.6,0.1-1.2,0.2-1.9,0.2s-1.3-0.1-1.8-0.2
			s-1-0.4-1.4-0.7c-0.4-0.3-0.7-0.8-0.9-1.3s-0.2-1.2-0.1-2l0.8-5c0.1-0.8,0.4-1.4,0.7-2c0.3-0.6,0.8-1,1.2-1.3
			c0.5-0.3,1-0.6,1.6-0.7C165.7,71.9,166.4,71.8,167,71.8 M170.5,80.1L170.5,80.1 M167,70.3c-0.7,0-1.4,0.1-2.2,0.3l0,0l0,0
			c-0.8,0.2-1.4,0.5-2.1,0.9c-0.7,0.5-1.3,1.1-1.7,1.8c-0.4,0.7-0.7,1.6-0.9,2.5l-0.8,5c-0.2,1-0.1,1.9,0.1,2.7
			c0.2,0.8,0.7,1.5,1.3,2c0.6,0.5,1.3,0.8,2,1c0.7,0.2,1.4,0.2,2.2,0.2c0.8,0,1.5-0.1,2.2-0.2c0.7-0.2,1.4-0.5,2.1-0.9
			c0.7-0.4,1.3-1,1.6-1.6c0.4-0.7,0.7-1.5,0.9-2.3l0.2-1.5l0.3-1.7h-1.7h0h-2.3c-0.8,0-1.5,0.2-1.9,0.6l0.2-1.2
			c0.3,0.3,0.8,0.5,1.3,0.5l0,0c0.1,0,0.2,0,0.3,0c0.1,0,0.2,0,0.3,0h2.5h1.3l0.2-1.3l0.2-1.4c0.1-0.7,0.1-1.5-0.2-2.3
			c-0.2-0.7-0.7-1.3-1.2-1.8c-0.6-0.6-1.3-0.9-1.9-1.1l0,0l0,0C168.5,70.4,167.8,70.3,167,70.3L167,70.3z"/>
	</g>
	<g>
		<path class="st2" d="M176.2,86.1c-0.7,0-1.4-0.1-2-0.3c-0.7-0.2-1.2-0.5-1.7-0.9c-0.5-0.4-0.9-0.9-1.1-1.6
			c-0.2-0.6-0.3-1.3-0.2-2.2l0.9-5.5c0.1-0.8,0.4-1.5,0.8-2.1c0.4-0.6,0.9-1.1,1.5-1.5c0.6-0.4,1.2-0.6,1.9-0.8
			c0.6-0.2,1.3-0.3,2.1-0.3c0.7,0,1.3,0.1,2,0.3c0.6,0.2,1.2,0.5,1.7,0.9c0.5,0.4,0.8,0.9,1.1,1.5c0.2,0.7,0.3,1.3,0.2,2l-1,6.1
			c-0.1,0.7-0.4,1.3-0.8,1.9c-0.4,0.6-0.9,1-1.4,1.3c-0.6,0.3-1.2,0.6-1.8,0.8C177.7,86,177,86.1,176.2,86.1z M176.4,81.3
			c0.1,0,0.2,0,0.2,0c0,0,0,0,0.1,0c0.1,0,0.2,0,0.2,0c0.1,0,0.2,0,0.2-0.1c0,0,0.1-0.1,0.1-0.1c0,0,0-0.1,0.1-0.2l0.8-5.2
			c0,0-0.1,0-0.1-0.1c0,0-0.1,0-0.2,0s-0.1,0-0.2,0c-0.1,0-0.2,0-0.2,0.1c0,0-0.1,0.1-0.1,0.1c0,0,0,0.1,0,0.1L176.4,81.3
			C176.4,81.3,176.4,81.3,176.4,81.3L176.4,81.3z"/>
		<path class="st1" d="M178.3,71.9c0.6,0,1.2,0.1,1.8,0.3c0.6,0.2,1,0.4,1.4,0.8c0.4,0.3,0.7,0.7,0.9,1.2c0.2,0.5,0.2,1,0.1,1.5
			l-1,6.1c-0.1,0.6-0.3,1.1-0.6,1.5c-0.3,0.4-0.7,0.8-1.2,1.1s-1,0.5-1.6,0.7c-0.6,0.2-1.2,0.2-1.9,0.2s-1.2-0.1-1.8-0.2
			c-0.6-0.2-1-0.4-1.4-0.7c-0.4-0.3-0.7-0.8-0.9-1.3c-0.2-0.5-0.2-1.1-0.1-1.8l0.9-5.5c0.1-0.7,0.3-1.3,0.7-1.8
			c0.3-0.5,0.8-0.9,1.3-1.3c0.5-0.3,1-0.6,1.7-0.7C177,71.9,177.7,71.9,178.3,71.9 M176.7,82.1c0.1,0,0.3,0,0.4,0
			c0.1,0,0.3-0.1,0.4-0.1s0.3-0.2,0.4-0.3c0.1-0.1,0.2-0.3,0.2-0.5l0.8-5.2c0-0.2,0-0.4-0.1-0.5c-0.1-0.1-0.2-0.2-0.3-0.3
			c-0.1-0.1-0.2-0.1-0.4-0.1c-0.1,0-0.3,0-0.4,0c-0.1,0-0.2,0-0.4,0c-0.1,0-0.3,0.1-0.4,0.1c-0.1,0.1-0.2,0.2-0.4,0.3
			c-0.1,0.1-0.2,0.3-0.2,0.5l-0.8,5.2c0,0.2,0,0.4,0,0.5c0.1,0.1,0.1,0.2,0.2,0.3c0.1,0.1,0.2,0.1,0.3,0.1
			C176.4,82.1,176.6,82.1,176.7,82.1 M178.3,70.4c-0.9,0-1.6,0.1-2.3,0.3c-0.8,0.2-1.4,0.5-2.1,0.9c-0.7,0.4-1.2,1-1.7,1.7
			c-0.5,0.7-0.8,1.5-0.9,2.4l-0.9,5.4c-0.1,1-0.1,1.8,0.2,2.6c0.3,0.7,0.7,1.4,1.3,1.9c0.5,0.5,1.2,0.8,2,1c0.7,0.2,1.4,0.3,2.2,0.3
			c0.8,0,1.6-0.1,2.3-0.3c0.7-0.2,1.4-0.5,2-0.9c0.6-0.4,1.2-0.9,1.6-1.5c0.5-0.6,0.8-1.3,0.9-2.2l1-6.1c0.1-0.7,0.1-1.5-0.2-2.3
			l0,0l0,0c-0.3-0.7-0.7-1.3-1.3-1.8c-0.6-0.5-1.2-0.8-2-1.1C179.8,70.5,179.1,70.4,178.3,70.4L178.3,70.4z"/>
	</g>
	<g>
		<path class="st2" d="M197,86c-0.7,0-1.2-0.2-1.5-0.7c-0.3-0.4-0.4-1-0.3-1.7l1-6.5c0.1-0.5,0.1-0.8-0.1-1c0-0.1-0.1-0.1-0.2-0.1
			l-0.2-0.7l0.1,0.7c-0.1,0-0.2,0-0.2,0.1c-0.1,0.1-0.2,0.1-0.3,0.1c0,0-0.2,0.1-0.2,0.1l-0.9,5.4c0.2,0.1,0.4,0.4,0.5,0.7
			c0.1,0.4,0.1,0.8,0.1,1.2l-0.4,2.3h-4.3c-0.6,0-1.1-0.4-1.3-1.1c-0.1-0.4-0.1-0.8,0-1.3l1.1-6.7c0-0.3,0-0.4,0-0.5
			c0-0.1-0.1-0.1-0.1-0.2c0,0-0.1,0-0.2-0.1c-0.1,0-0.2,0-0.2,0c-0.2,0-0.3,0.1-0.4,0.1l-0.1,0l-0.9,5.5c0.1,0.1,0.3,0.3,0.5,0.6
			c0.2,0.4,0.2,0.8,0.1,1.3l-0.4,2.3h-7l0.4-2.5c0.1-0.5,0.2-0.9,0.4-1.1c0.2-0.3,0.5-0.6,0.7-0.7l0.1-0.1c0,0,0.9-5.6,0.9-5.6
			c0-0.1,0-0.2,0-0.2c0,0,0,0,0,0l-0.3-0.3c-0.3-0.3-0.4-0.7-0.3-1.1l0.5-3.1h4c0.2,0,0.5,0.1,0.7,0.1c0.1,0,0.1,0.1,0.2,0.1
			c0,0,0.1,0,0.1,0c0.2-0.1,0.5-0.2,0.9-0.3c0.3-0.1,0.8-0.1,1.2-0.1c0.8,0,1.5,0.1,2.1,0.4c0.3,0.2,0.6,0.3,0.8,0.5
			c0.1-0.1,0.3-0.2,0.4-0.3c0.4-0.2,0.7-0.3,1.2-0.5c0.5-0.2,1-0.2,1.6-0.2c0.7,0,1.3,0.1,2,0.3c0.6,0.2,1.2,0.6,1.6,1.1
			c0.4,0.5,0.7,1.1,0.8,1.9c0.1,0.8,0.1,1.8-0.1,2.8l-0.7,4.6l0,0.1v0.1c0.2,0.2,0.3,0.4,0.4,0.6c0.1,0.3,0.1,0.7,0,1.2l-0.4,2.3
			H197z"/>
		<path class="st1" d="M197,71.7c0.7,0,1.2,0.1,1.8,0.3c0.5,0.2,0.9,0.5,1.3,0.9c0.3,0.4,0.5,0.9,0.7,1.6c0.1,0.7,0.1,1.5-0.1,2.5
			l-0.7,4.7c0,0.2,0,0.3,0,0.3c0,0.2,0.1,0.3,0.1,0.3c0.1,0.1,0.2,0.2,0.3,0.4c0.1,0.2,0.1,0.5,0,0.8l-0.3,1.7h-3
			c-0.4,0-0.7-0.1-0.9-0.4c-0.2-0.3-0.3-0.6-0.2-1.1l1-6.5c0.1-0.7,0.1-1.2-0.2-1.5c-0.2-0.3-0.5-0.4-0.8-0.4c-0.1,0-0.1,0-0.2,0
			c-0.1,0-0.3,0.1-0.4,0.1c-0.2,0.1-0.3,0.1-0.4,0.2c-0.1,0.1-0.3,0.2-0.4,0.3l-0.9,5.8c0,0.2,0,0.3,0,0.3c0,0.1,0.1,0.1,0.2,0.2
			c0.1,0.1,0.2,0.2,0.3,0.4c0.1,0.2,0.1,0.5,0,0.8l-0.3,1.7h-3.7c-0.3,0-0.5-0.2-0.5-0.5c-0.1-0.3-0.1-0.6,0-1l1.1-6.7
			c0.1-0.4,0-0.6,0-0.9c-0.1-0.2-0.2-0.4-0.3-0.5c-0.1-0.1-0.3-0.2-0.5-0.3c-0.2,0-0.3-0.1-0.5-0.1c-0.3,0-0.6,0.1-0.8,0.3
			c-0.1,0.1-0.2,0.1-0.3,0.2l-0.9,5.9c0,0.2,0,0.3,0,0.4c0,0.1,0.1,0.1,0.2,0.2c0.1,0.1,0.2,0.2,0.3,0.4c0.1,0.2,0.1,0.5,0.1,0.8
			l-0.3,1.7h-5.5l0.3-1.7c0.1-0.3,0.2-0.6,0.3-0.8c0.1-0.2,0.3-0.4,0.5-0.5c0.1-0.1,0.2-0.1,0.3-0.2c0.1-0.1,0.2-0.2,0.2-0.5
			l0.9-5.6c0.1-0.3,0.1-0.5,0-0.7c-0.1-0.1-0.1-0.2-0.2-0.3s-0.2-0.2-0.3-0.3c-0.1-0.1-0.2-0.2-0.1-0.4l0.4-2.5h3.4
			c0.1,0,0.3,0,0.3,0.1c0.1,0,0.1,0.1,0.1,0.2c0,0.1,0.1,0.1,0.1,0.2c0.2-0.1,0.4-0.2,0.7-0.3c0.2-0.1,0.5-0.2,0.8-0.2
			c0.3-0.1,0.7-0.1,1-0.1c0.7,0,1.3,0.1,1.7,0.3c0.5,0.2,0.8,0.5,1.1,0.9c0.2-0.2,0.5-0.4,0.9-0.6c0.3-0.1,0.6-0.3,1-0.4
			C196,71.8,196.4,71.7,197,71.7 M197,70.2c-0.7,0-1.3,0.1-1.9,0.3c-0.4,0.1-0.8,0.3-1.2,0.5l-0.1,0l-0.1,0c0,0,0,0,0,0
			c-0.2-0.1-0.3-0.2-0.5-0.3c-0.7-0.3-1.5-0.5-2.4-0.5c-0.3,0-0.9,0-1.4,0.1c-0.2,0.1-0.5,0.1-0.7,0.2c-0.3-0.1-0.6-0.2-1-0.2h-3.4
			h-1.3l-0.2,1.3l-0.4,2.5c-0.1,0.6,0.1,1.2,0.5,1.7l0,0l-0.8,5.2c-0.3,0.2-0.5,0.5-0.8,0.8c-0.2,0.4-0.4,0.8-0.5,1.4l0,0l0,0
			l-0.3,1.7l-0.3,1.7h1.8h5.5h1.3l0.1-0.4c0.3,0.3,0.8,0.4,1.2,0.4h3.7h1.3l0.1-0.6c0.4,0.3,1,0.6,1.8,0.6h3h1.3l0.2-1.3l0.3-1.7
			c0.1-0.6,0.1-1.1-0.1-1.5c-0.1-0.2-0.2-0.5-0.3-0.7l0.7-4.4c0.2-1.1,0.2-2.1,0.1-3l0,0l0,0c-0.2-1-0.5-1.7-1-2.3
			c-0.5-0.6-1.2-1.1-1.9-1.3C198.5,70.3,197.7,70.2,197,70.2L197,70.2z"/>
	</g>
</g>
<g>
	<g>
		<path class="st2" d="M20.2,55.7c-0.8,0-1.4-0.2-1.8-0.6c-0.4-0.3-0.7-0.9-1-1.9l-2-7.4l-0.3,0.5l-0.6,3.9c0,0,0,0.1,0,0.1l0.1,0.1
			c0.2,0.2,0.4,0.4,0.6,0.7c0.3,0.4,0.3,0.9,0.2,1.6l-0.5,3H5.8l0.4-2.9l0.1-0.4c0.1-0.5,0.3-1,0.6-1.4c0.3-0.4,0.6-0.6,0.9-0.8
			c0,0,0,0,0.1-0.1c0,0,0-0.1,0-0.2l0.2-1.3l2.7-17.1c0-0.1,0-0.1,0-0.2c-0.2-0.2-0.4-0.4-0.6-0.8c-0.3-0.4-0.3-0.9-0.2-1.6l0.1-0.4
			l0.3-1.9v-0.7l0.8,0h8.5l-0.5,3.2c-0.1,0.5-0.3,1-0.6,1.4c-0.3,0.3-0.6,0.6-0.9,0.8c0,0-0.1,0.1-0.1,0.1c0,0,0,0.1,0,0.2L17.1,34
			l4.7-6.5l0,0c0.2-0.2,0.4-0.4,0.6-0.5c0.2-0.2,0.5-0.3,0.8-0.5c0.4-0.2,0.8-0.2,1.2-0.2h4.1l-0.5,3.2c-0.2,1.3-0.8,2.2-1.6,2.5
			c-0.1,0.1-0.3,0.1-0.5,0.2c-0.1,0.1-0.2,0.1-0.2,0.2c-0.1,0.1-0.4,0.5-0.8,1.2c-0.5,0.6-1,1.3-1.5,2.1l-0.5,0.7
			c-0.4,0.6-0.8,1.1-1.1,1.6c-0.4,0.6-0.7,1-0.9,1.3l-0.2,0.2c0,0,0,0,0,0c0,0,0,0.1,0,0.2l2.5,9.6c0,0.1,0.1,0.2,0.2,0.3
			c0.1,0.1,0.2,0.2,0.3,0.3c0.1,0.1,0.2,0.1,0.4,0.1l0.1,0l0.5,0.2l0,0c0.4,0.2,0.6,0.4,0.8,0.6c0.4,0.4,0.4,1.2,0.3,1.8L25,55.7
			H20.2z"/>
		<path class="st1" d="M27.6,26.9l-0.4,2.4c-0.2,1-0.5,1.7-1.1,1.9c-0.2,0.1-0.5,0.2-0.7,0.3c-0.2,0.1-0.4,0.3-0.5,0.4
			c-0.1,0.1-0.3,0.5-0.8,1.1c-0.5,0.6-1,1.3-1.5,2.1c-0.6,0.8-1.1,1.6-1.6,2.3c-0.5,0.7-0.9,1.3-1.1,1.6c-0.1,0.1-0.1,0.2-0.1,0.3
			c0,0.1,0,0.3,0,0.4l2.5,9.6c0.1,0.3,0.2,0.5,0.4,0.7c0.2,0.2,0.3,0.3,0.5,0.4c0.2,0.1,0.4,0.2,0.6,0.2c0.1,0,0.3,0.1,0.4,0.1
			c0.3,0.1,0.4,0.3,0.6,0.5c0.2,0.2,0.2,0.6,0.1,1.1L24.4,55h-1.2h-2.6h-0.4c-0.6,0-1.1-0.1-1.3-0.4c-0.3-0.2-0.5-0.7-0.7-1.5
			l-2.4-9L14.4,46l-0.6,4c0,0.3,0,0.4,0,0.5c0.1,0.1,0.1,0.2,0.2,0.3c0.2,0.1,0.3,0.4,0.5,0.6c0.2,0.3,0.2,0.6,0.1,1.1L14.3,55H14
			H6.7L7,53L7,52.6c0.1-0.4,0.2-0.8,0.5-1.1C7.7,51.2,8,51,8.2,50.9c0.1-0.1,0.3-0.2,0.3-0.3c0.1-0.1,0.1-0.3,0.2-0.5l0.2-1.2
			l2.7-17.1c0-0.3,0-0.5,0-0.6s-0.1-0.2-0.2-0.3c-0.2-0.1-0.3-0.4-0.5-0.6c-0.2-0.3-0.2-0.6-0.1-1.1l0.1-0.4l0.3-2v0h7.6l-0.4,2.4
			c-0.1,0.4-0.2,0.8-0.5,1.1c-0.2,0.3-0.5,0.5-0.7,0.6c-0.1,0.1-0.2,0.2-0.3,0.3s-0.2,0.3-0.2,0.6L15.9,37l6.5-9.1
			c0.2-0.2,0.4-0.3,0.6-0.5c0.2-0.1,0.4-0.2,0.6-0.4c0.3-0.1,0.5-0.2,0.8-0.2H27.6 M18.7,26.9L18.7,26.9 M29.3,25.4h-1.8h-3.2
			c-0.4,0-0.9,0-1.5,0.3c-0.3,0.2-0.6,0.3-0.9,0.5c-0.2,0.2-0.5,0.4-0.7,0.6l-0.1,0.1L21.1,27L20,28.7l0.2-1.6l0.3-1.7h-1.7h0h-7.6
			H9.6v1.4l-0.3,1.9L9.3,29c-0.1,0.9,0,1.6,0.3,2.1c0.1,0.2,0.3,0.5,0.5,0.7L7.4,48.6l-0.2,1.1c-0.3,0.2-0.6,0.5-0.9,0.9
			c-0.4,0.5-0.7,1.1-0.8,1.8l-0.1,0.3l-0.3,2l-0.3,1.7h1.7H14h0.3h1.3l0.2-1.3l0.4-2.4c0.1-0.8,0-1.5-0.3-2.1
			c-0.1-0.2-0.3-0.5-0.5-0.7l0.2-1.2l1.2,4.6c0.3,1.2,0.7,1.8,1.2,2.3c0.6,0.5,1.3,0.7,2.3,0.7h0.4h2.6h1.2h1.3l0.2-1.3l0.4-2.6
			c0.1-0.5,0.3-1.7-0.5-2.4c-0.2-0.2-0.5-0.5-1-0.7l-0.1,0l-0.1,0c0,0-0.1,0-0.1,0c-0.1,0-0.2-0.1-0.2-0.1l-0.1,0l-0.1,0
			c0,0-0.1,0-0.1,0l0,0l0,0c0,0-0.1-0.1-0.1-0.1l-2.4-9.4c0.2-0.3,0.5-0.7,0.8-1.2c0.4-0.5,0.8-1.1,1.2-1.6l0.5-0.7
			c0.6-0.8,1.1-1.5,1.5-2.1c0.6-0.8,0.7-1,0.8-1.1l0.1,0c0.1-0.1,0.2-0.1,0.4-0.2c1.1-0.4,1.8-1.4,2.1-3l0.4-2.4L29.3,25.4
			L29.3,25.4z M27.6,28.4L27.6,28.4L27.6,28.4L27.6,28.4z"/>
	</g>
	<g>
		<path class="st2" d="M32.1,55.9c-1,0-1.9-0.1-2.8-0.4c-0.8-0.3-1.6-0.7-2.2-1.3c-0.6-0.6-1.1-1.4-1.3-2.3
			c-0.2-0.9-0.3-1.9-0.1-2.9l1.1-6.8c0.1-1,0.5-2,1.1-2.9c0.6-0.9,1.2-1.6,1.9-2.2c0.8-0.6,1.6-1.1,2.6-1.4c0.9-0.3,1.9-0.5,2.9-0.5
			c1.1,0,2,0.2,2.8,0.5c0.9,0.3,1.7,0.8,2.3,1.4c0.6,0.6,1.1,1.4,1.4,2.3c0.3,0.9,0.3,1.9,0.2,2.9l-0.3,1.9
			c-0.1,0.8-0.3,1.4-0.6,1.8c-0.4,0.5-1.1,0.8-2.1,0.8l-6.2,0l-0.4,2.7c0,0.1,0,0.2,0,0.2l0.1,0l0.1,0.1c0,0,0.2,0,0.2,0.1
			c0.1,0,0.2,0,0.3,0c0,0,0,0,0,0c0.1,0,0.2,0,0.3,0l0.1,0c0.1,0,0.3-0.1,0.4-0.1c0.2-0.1,0.3-0.1,0.3-0.2c0,0,0-0.1,0.1-0.2l0-0.1
			c0.1-0.8,0.6-1.4,1.2-1.8c0.6-0.3,1.3-0.5,2.1-0.5h3.7l-0.5,3.3c-0.2,1-0.5,1.8-1.1,2.5c-0.6,0.7-1.2,1.3-2,1.7
			c-0.7,0.4-1.6,0.8-2.6,1C33.9,55.8,33,55.9,32.1,55.9z M35.2,42.5l0.1-0.6c0.1-0.4,0-0.5,0-0.6c-0.1-0.1-0.1-0.2-0.1-0.2
			c-0.1,0-0.2-0.1-0.2-0.1l-0.1,0c-0.1,0-0.1,0-0.2,0c-0.1,0-0.1,0-0.2,0l-0.2,0c0,0-0.1,0-0.2,0.1l-0.1,0.1
			c-0.1,0.1-0.2,0.2-0.3,0.3c-0.1,0.1-0.2,0.3-0.2,0.6l-0.1,0.4H35.2z"/>
		<path class="st1" d="M35.4,36c0.9,0,1.8,0.1,2.6,0.4c0.8,0.3,1.5,0.7,2,1.3c0.5,0.5,0.9,1.2,1.2,2c0.2,0.8,0.3,1.6,0.1,2.6
			l-0.3,1.9c-0.1,0.7-0.3,1.1-0.5,1.4s-0.7,0.5-1.5,0.5l-6.8,0l-0.5,3.3c0,0.3,0,0.5,0.1,0.7c0.1,0.2,0.3,0.3,0.4,0.4
			c0.2,0.1,0.4,0.1,0.5,0.2c0.2,0,0.3,0,0.4,0c0.1,0,0.3,0,0.6-0.1c0.2,0,0.4-0.1,0.6-0.2s0.4-0.2,0.5-0.4c0.1-0.2,0.2-0.4,0.3-0.7
			v0c0.1-0.6,0.4-1,0.8-1.3c0.5-0.3,1-0.4,1.7-0.4h2.8L40,50.1c-0.1,0.8-0.4,1.6-0.9,2.2c-0.5,0.6-1.1,1.2-1.8,1.6
			c-0.7,0.4-1.5,0.7-2.4,1c-0.9,0.2-1.8,0.3-2.7,0.3c-0.9,0-1.8-0.1-2.5-0.4c-0.8-0.3-1.4-0.7-1.9-1.2c-0.5-0.5-0.9-1.1-1.1-1.9
			c-0.2-0.8-0.3-1.6-0.1-2.6l1.1-6.9c0.1-1,0.5-1.8,1-2.6c0.5-0.8,1.1-1.4,1.8-2c0.7-0.5,1.5-1,2.4-1.3C33.5,36.1,34.4,36,35.4,36
			 M32.5,43.3h3.3L36,42c0.1-0.4,0.1-0.7,0-1c-0.1-0.2-0.2-0.4-0.4-0.5c-0.2-0.1-0.3-0.2-0.5-0.2c-0.2,0-0.3-0.1-0.5-0.1
			c-0.1,0-0.3,0-0.5,0.1c-0.2,0-0.4,0.1-0.6,0.2c-0.2,0.1-0.4,0.3-0.6,0.5c-0.2,0.2-0.3,0.5-0.3,0.9L32.5,43.3 M40.4,47.7L40.4,47.7
			 M35.4,34.5c-1.1,0-2.2,0.2-3.2,0.5c-1,0.3-1.9,0.8-2.8,1.5c-0.8,0.6-1.5,1.4-2.1,2.3c-0.6,1-1,2.1-1.2,3.2L25,48.9
			c-0.2,1.1-0.1,2.1,0.1,3.2c0.3,1,0.8,1.9,1.5,2.6c0.7,0.7,1.5,1.2,2.5,1.5c0.9,0.3,1.9,0.5,3,0.5c1,0,1.9-0.1,3.1-0.4l0,0l0,0
			c1-0.3,1.9-0.7,2.8-1.1c0.8-0.5,1.6-1.1,2.2-1.9c0.6-0.8,1.1-1.7,1.2-2.9l0.4-2.4l0.3-1.7h-0.3c0.3-0.5,0.5-1.1,0.6-1.8l0.3-1.9
			c0.2-1.1,0.1-2.2-0.2-3.3c-0.3-1-0.8-1.9-1.5-2.6c-0.7-0.7-1.5-1.2-2.5-1.6C37.6,34.7,36.5,34.5,35.4,34.5L35.4,34.5z M34.5,41.8
			L34.5,41.8C34.5,41.8,34.5,41.8,34.5,41.8L34.5,41.8L34.5,41.8z M40.4,46.2L40.4,46.2L40.4,46.2L40.4,46.2z M33.3,47.6l0.8,0
			c-0.3,0.4-0.5,0.9-0.6,1.4c0,0,0,0,0,0c-0.1,0-0.1,0-0.2,0.1l-0.1,0c0,0-0.1,0-0.1,0L33.3,47.6L33.3,47.6z"/>
	</g>
	<g>
		<path class="st2" d="M41.2,65.2l0.7-4.1c0.1-0.5,0.3-0.9,0.6-1.3c0.3-0.3,0.6-0.5,0.9-0.6l0.1-0.1l0.1,0c0.3,0,0.6-0.1,0.8-0.1
			l1.3-3.3h-0.6c-0.8,0-1.3-0.6-1.3-1.4l0-0.3c0-0.4-0.1-0.9-0.1-1.4c-0.1-0.7-0.1-1.6-0.2-2.4l-0.2-2.7c-0.1-0.9-0.1-1.8-0.2-2.5
			c-0.1-0.6-0.1-1.1-0.1-1.6l0-0.4c0-0.3,0-0.5-0.1-0.7c0-0.1,0-0.2,0-0.3c0-0.4-0.1-0.6-0.1-0.6c-0.3-0.3-0.5-0.6-0.6-0.9
			C42,40.1,42,39.6,42.1,39l0.6-3.5h4.6c1.2,0,1.9,0.8,1.9,2.2v0.6c0,0.4,0,0.8,0,1.4c0,0.3,0,0.6,0,0.9c0,0.3,0,0.7,0,1.1
			c0,0.3,0,0.7,0,1c0,0.4,0,0.7,0,1.1c0,0.5,0,0.9,0,1.4c0.2-0.6,0.4-1.1,0.5-1.6c0.2-0.7,0.5-1.4,0.7-2.1l0.2-0.7
			c0.1-0.4,0.3-0.8,0.4-1.2l0-0.1c0.2-0.5,0.3-0.9,0.4-1.3c0.1-0.2,0.1-0.4,0.1-0.5l0.1-0.2c0.1-0.5,0.3-0.8,0.4-1.1
			c0.1-0.2,0.3-0.4,0.5-0.6c0.3-0.2,0.6-0.3,0.8-0.3c0.3,0,0.6,0,0.9,0l4.3-0.1L58.3,39c-0.1,0.6-0.2,1-0.3,1.1
			c-0.1,0.3-0.3,0.5-0.6,0.8c-0.2,0.3-0.4,0.4-0.5,0.6c0,0.1-0.1,0.2-0.2,0.4c-0.2,0.6-0.6,1.5-1,2.6l-0.1,0.3
			c-0.2,0.6-0.4,1.2-0.7,1.8c-0.3,0.8-0.6,1.6-0.9,2.4c-0.6,1.5-1.1,3.1-1.7,4.7c-0.2,0.7-0.5,1.3-0.7,1.9c-0.3,0.9-0.6,1.7-0.9,2.5
			c-0.2,0.7-1.1,3-1.2,3.4c0,0-0.5,1.4-0.6,1.5c-0.3,0.7-0.8,1.2-1.3,1.5c-0.5,0.3-1.1,0.5-1.7,0.5H41.2z"/>
		<path class="st1" d="M58,36.2l-0.4,2.7c-0.1,0.5-0.2,0.8-0.2,1c-0.1,0.2-0.2,0.4-0.5,0.6c-0.2,0.3-0.4,0.4-0.5,0.6
			c-0.1,0.1-0.2,0.3-0.3,0.6c-0.3,0.7-0.6,1.7-1.1,2.9c-0.5,1.3-1,2.7-1.5,4.2c-0.6,1.5-1.1,3.1-1.7,4.7c-0.6,1.6-1.1,3.1-1.6,4.5
			c-0.5,1.4-0.9,2.5-1.2,3.4c-0.3,0.9-0.5,1.4-0.6,1.5c-0.2,0.5-0.5,0.9-1,1.1c-0.5,0.3-0.9,0.4-1.3,0.4h-3.1H42l0.5-3.3
			c0.1-0.4,0.2-0.6,0.4-0.9s0.4-0.4,0.7-0.5c0.5,0,0.8-0.1,1-0.1c0.2,0,0.3-0.2,0.4-0.4l1.7-4.4h-1.7c-0.4,0-0.6-0.2-0.6-0.7
			c0-0.4-0.1-1-0.1-1.8c-0.1-0.8-0.1-1.6-0.2-2.5c-0.1-0.9-0.1-1.8-0.2-2.7c-0.1-0.9-0.1-1.8-0.2-2.5c-0.1-0.8-0.1-1.4-0.1-2
			c0-0.5-0.1-0.8-0.1-0.9c0-0.6-0.2-1-0.4-1.2c-0.2-0.1-0.3-0.4-0.4-0.6c-0.1-0.3-0.1-0.6,0-1.1l0.5-2.9h3.9c0.8,0,1.2,0.5,1.2,1.4
			c0,0.1,0,0.3,0,0.6c0,0.4,0,0.8,0,1.4c0,0.6,0,1.2,0,1.9c0,0.7,0,1.4,0,2.2c0,1.7,0.1,3.7,0.1,5.8c0.7-2.1,1.4-4,1.9-5.8
			c0.2-0.7,0.5-1.4,0.7-2.1c0.2-0.7,0.5-1.3,0.6-1.9c0.2-0.6,0.4-1,0.5-1.4c0.1-0.4,0.2-0.6,0.2-0.7c0.1-0.4,0.2-0.6,0.3-0.8
			c0.1-0.2,0.2-0.3,0.4-0.4c0.1-0.1,0.3-0.1,0.5-0.2c0.2,0,0.5,0,0.8,0L58,36.2 M59.7,34.7l-1.8,0l-3.5,0.1c0,0,0,0-0.1,0
			c-0.3,0-0.6,0-0.9,0.1c-0.3,0-0.7,0.1-1.2,0.4c-0.3,0.2-0.6,0.5-0.8,0.9c-0.2,0.3-0.3,0.7-0.5,1.2l0,0.1c0,0.1-0.1,0.3-0.2,0.5
			c-0.1,0.3-0.2,0.7-0.4,1.2l0,0.1l0,0l0,0c-0.1,0.4-0.2,0.7-0.4,1.1c0,0.1-0.1,0.2-0.1,0.3c0-0.1,0-0.2,0-0.3c0-0.3,0-0.5,0-0.8v0
			l0,0c0-0.5,0-1,0-1.3v-0.6c0-2.2-1.5-2.9-2.7-2.9h-3.9H42L41.8,36l-0.5,2.9c-0.1,0.7-0.1,1.3,0.1,1.8c0.1,0.3,0.3,0.7,0.6,1.1
			c0,0.1,0,0.2,0,0.3l0,0c0,0.1,0,0.1,0,0.2c0,0.1,0,0.4,0,0.7l0,0.4c0,0.5,0.1,1,0.1,1.6c0.1,0.8,0.1,1.6,0.2,2.5l0.1,0.9
			c0,0.6,0.1,1.2,0.1,1.8c0.1,0.9,0.1,1.7,0.2,2.4c0,0.6,0.1,1,0.1,1.4l0,0.3c0,1.1,0.7,1.9,1.6,2l-0.8,1.9c-0.1,0-0.2,0-0.3,0
			l-0.3,0l-0.2,0.1c-0.4,0.2-0.8,0.4-1.1,0.8c-0.4,0.4-0.7,1-0.8,1.7l-0.5,3.3L40.3,66H42h0.8H46c0.7,0,1.4-0.2,2.1-0.7
			c0.7-0.4,1.3-1,1.6-1.8l0-0.1l0-0.1c0-0.1,0.1-0.3,0.3-0.7l0.3-0.8c0.2-0.5,0.4-1,0.6-1.6c0.2-0.5,0.4-1.1,0.6-1.8
			c0.3-0.8,0.6-1.7,0.9-2.5c0.2-0.6,0.5-1.3,0.7-1.9c0.6-1.6,1.1-3.2,1.7-4.7c0.3-0.8,0.6-1.6,0.9-2.4c0.2-0.6,0.5-1.3,0.7-1.8
			l0.1-0.3c0.4-1.1,0.7-2,1-2.6c0-0.1,0.1-0.2,0.1-0.2c0.1-0.1,0.3-0.3,0.5-0.5c0.3-0.4,0.6-0.7,0.7-1.1c0.1-0.2,0.2-0.6,0.3-1.3
			l0.4-2.7L59.7,34.7L59.7,34.7z M58,37.7L58,37.7L58,37.7L58,37.7z"/>
	</g>
	<g>
		<path class="st2" d="M64,55.9c-1,0-2-0.1-2.9-0.4c-1-0.3-1.8-0.6-2.5-1.2c-0.7-0.5-1.2-1.2-1.6-2c-0.4-0.9-0.5-1.9-0.3-2.9
			L59.6,32c0.1-1,0.5-2,1.2-2.8c0.6-0.8,1.3-1.4,2.2-2c0.8-0.5,1.6-0.8,2.7-1.1c1.1-0.3,2-0.4,3-0.4c0.9,0,1.9,0.1,2.9,0.4
			c0.9,0.3,1.8,0.7,2.5,1.2c0.7,0.5,1.2,1.2,1.6,2.1c0.3,0.8,0.4,1.8,0.3,2.9l-0.5,3.4h-3.5c-0.8,0-1.5-0.3-2-0.8
			c-0.4-0.4-0.8-1-0.6-2.1l0-0.1c0-0.2,0-0.4,0-0.7c0-0.1-0.1-0.2-0.1-0.2c0,0,0-0.1-0.2-0.1c-0.2-0.1-0.5-0.1-1-0.1
			c-0.4,0-0.7,0-0.9,0.1c-0.3,0.1-0.5,0.2-0.6,0.3c-0.1,0.1-0.2,0.2-0.3,0.3c-0.1,0.2-0.1,0.4-0.2,0.5l-2.6,16.4
			c0,0.1,0.2,0.3,0.3,0.4c0.2,0.2,0.6,0.3,1.1,0.3c0.6,0,1-0.1,1.4-0.4c0.3-0.2,0.5-0.4,0.5-0.6l0.1-0.4c0.1-0.7,0.4-1.3,0.9-1.9
			c0.6-0.6,1.3-0.9,2.2-0.9h3.8l-0.6,3.7c-0.1,1-0.5,2-1.2,2.8c-0.6,0.8-1.3,1.4-2.2,2c-0.8,0.5-1.7,0.9-2.7,1.1
			C66.1,55.8,65.1,55.9,64,55.9z"/>
		<path class="st1" d="M68.7,26.4c0.9,0,1.8,0.1,2.7,0.4c0.9,0.2,1.6,0.6,2.2,1.1c0.6,0.5,1.1,1.1,1.4,1.8c0.3,0.7,0.4,1.6,0.2,2.5
			l-0.4,2.8h-2.8c-0.6,0-1.1-0.2-1.5-0.6C70,34,69.9,33.5,70,32.9v0c0-0.3,0-0.5,0-0.8c0-0.3-0.1-0.5-0.2-0.7
			c-0.1-0.2-0.3-0.3-0.6-0.4c-0.3-0.1-0.7-0.2-1.2-0.2c-0.5,0-0.9,0.1-1.2,0.2c-0.3,0.1-0.6,0.3-0.8,0.4c-0.2,0.2-0.4,0.4-0.5,0.6
			c-0.1,0.2-0.2,0.4-0.2,0.6l-2.6,16.4c-0.1,0.4,0.1,0.7,0.5,1.1c0.4,0.4,0.9,0.5,1.6,0.5c0.7,0,1.2-0.1,1.8-0.5
			c0.5-0.3,0.8-0.7,0.9-1.1l0.1-0.4c0.1-0.6,0.3-1.1,0.7-1.5c0.4-0.4,0.9-0.6,1.6-0.6h3l-0.4,2.8c-0.1,1-0.5,1.8-1,2.5
			c-0.5,0.7-1.2,1.3-2,1.8c-0.8,0.5-1.6,0.8-2.5,1c-0.9,0.3-1.9,0.4-2.8,0.4c-0.9,0-1.8-0.1-2.7-0.3c-0.9-0.2-1.6-0.6-2.2-1
			c-0.6-0.5-1.1-1.1-1.4-1.8c-0.3-0.7-0.4-1.5-0.2-2.5l2.8-17.4c0.1-1,0.5-1.8,1-2.5c0.5-0.7,1.2-1.3,2-1.8c0.8-0.5,1.6-0.8,2.6-1.1
			C66.8,26.6,67.7,26.4,68.7,26.4 M68.7,24.9c-1,0-2.1,0.1-3.2,0.4l0,0l0,0c-1.2,0.3-2.1,0.7-2.9,1.2c-0.9,0.6-1.7,1.3-2.4,2.1
			c-0.7,0.9-1.2,2-1.3,3.2l-2.8,17.4c-0.2,1.2-0.1,2.3,0.3,3.3l0,0l0,0c0.5,1,1.1,1.8,1.9,2.3c0.7,0.6,1.6,1,2.7,1.3
			c0.9,0.3,1.9,0.4,3.1,0.4c1.2,0,2.2-0.1,3.2-0.5c1.1-0.3,2-0.7,2.9-1.2c0.9-0.6,1.7-1.3,2.4-2.1c0.7-0.9,1.2-2,1.3-3.2l0.4-2.8
			l0.3-1.7h-1.7h-3c-1.1,0-2,0.4-2.7,1.1l0,0l0,0c-0.6,0.6-1,1.4-1.1,2.3l-0.1,0.3c0,0-0.1,0.1-0.1,0.1l0,0l0,0
			c-0.3,0.2-0.6,0.2-1,0.2c-0.2,0-0.4,0-0.5-0.1l2.5-16.1c0,0,0-0.1,0.1-0.3c0,0,0,0,0,0c0,0,0,0,0.1,0c0,0,0.1-0.1,0.4-0.2
			c0.1,0,0.3-0.1,0.6-0.1c0.3,0,0.4,0,0.6,0c0,0.1,0,0.2,0,0.3l0,0.1v0c-0.1,1,0.2,2,0.8,2.6c0.7,0.7,1.5,1,2.6,1h2.8H76l0.2-1.3
			l0.4-2.8c0.2-1.3,0.1-2.4-0.3-3.3c-0.4-1-1-1.8-1.9-2.4c-0.7-0.6-1.7-1-2.7-1.3C70.7,25.1,69.7,24.9,68.7,24.9L68.7,24.9z"/>
	</g>
	<g>
		<path class="st2" d="M72.2,55.7l0.5-3.4c0.1-0.6,0.3-1.1,0.6-1.5c0.2-0.3,0.5-0.6,0.9-0.8l0.1,0l0.1,0l2.9-18c0-0.1,0-0.1-0.1-0.1
			c-0.3-0.2-0.5-0.5-0.7-0.8c-0.3-0.5-0.3-1-0.2-1.6l0.5-3.4h6.1c0.5,0,1,0.2,1.3,0.6c0.3,0.4,0.3,0.8,0.2,1.3c0,0.1,0,0.1,0,0.1
			c0,0.1,0,0.2-0.1,0.3c0,0-0.1,0.7-0.1,0.7l-0.3,2.1c-0.1,0.8-0.3,1.9-0.5,3.3c-0.1,0.6-0.2,1.4-0.3,2.1c-0.2,1.2-0.4,2.5-0.6,3.9
			c-0.2,1.4-0.5,3-0.7,4.9c-0.2,1.4-0.4,2.8-0.7,4.4c0,0,0,0,0,0l0,0c0.3,0.3,0.5,0.6,0.7,0.9c0.2,0.4,0.3,0.9,0.2,1.6l-0.5,3.2
			H72.2z"/>
		<path class="st1" d="M82.9,26.9c0.3,0,0.5,0.1,0.6,0.3c0.1,0.2,0.2,0.4,0.1,0.8c0,0.1,0,0.3-0.1,0.4c0,0.1-0.1,0.4-0.1,0.8
			c-0.1,0.4-0.2,1-0.3,1.9s-0.3,2.1-0.6,3.6c-0.2,1.6-0.6,3.6-0.9,6.1c-0.4,2.5-0.9,5.6-1.4,9.3c0,0.3,0,0.4,0,0.5
			c0.1,0,0.2,0.1,0.3,0.2c0.2,0.1,0.3,0.4,0.5,0.6c0.1,0.3,0.2,0.7,0.1,1.1L80.7,55H73l0.4-2.6c0.1-0.5,0.2-0.9,0.5-1.1
			c0.2-0.3,0.5-0.5,0.7-0.6c0.1,0,0.2-0.1,0.3-0.2c0.1-0.1,0.2-0.2,0.2-0.4L78,32c0-0.2,0-0.3-0.1-0.4c-0.1-0.1-0.1-0.2-0.3-0.3
			c-0.2-0.1-0.3-0.3-0.5-0.6C77,30.4,76.9,30,77,29.6l0.4-2.7H82.9 M82.9,25.4h-5.5h-1.3l-0.2,1.3l-0.4,2.7c-0.1,0.7,0,1.4,0.3,2
			l0,0.1l0,0.1c0.2,0.3,0.3,0.5,0.5,0.7l-2.7,17.3c-0.4,0.2-0.7,0.6-0.9,0.8c-0.4,0.5-0.7,1.2-0.8,1.9l-0.4,2.5l-0.3,1.7H73h7.7H82
			l0.2-1.3l0.4-2.5c0.1-0.8,0-1.5-0.2-2c-0.1-0.2-0.3-0.6-0.6-0.8c0.2-1.4,0.4-2.7,0.6-4c0.3-1.8,0.5-3.5,0.8-4.9
			c0.2-1.5,0.4-2.8,0.6-3.9c0.1-0.8,0.2-1.5,0.3-2.2c0.2-1.4,0.4-2.5,0.5-3.3l0-0.3l0.1-0.6c0.1-0.5,0.1-0.9,0.2-1.2
			c0-0.2,0-0.3,0.1-0.4c0-0.1,0-0.2,0-0.3c0-0.2,0.1-0.3,0.1-0.4l0-0.1c0.1-0.7,0-1.4-0.3-1.9C84.4,25.7,83.7,25.4,82.9,25.4
			L82.9,25.4z"/>
	</g>
	<g>
		<path class="st2" d="M88,55.9c-1.3,0-2.4-0.2-3.3-0.6c-0.9-0.4-1.6-1-2-1.6c-0.4-0.7-0.7-1.5-0.7-2.3c-0.1-0.8,0-1.6,0.1-2.5
			l0.1-0.5c0.2-1.1,0.5-2,1-2.8c0.5-0.7,1.1-1.3,1.9-1.7c0.8-0.4,1.6-0.7,2.4-0.9c0.8-0.2,1.7-0.4,2.6-0.5c0.3,0,0.5-0.1,0.7-0.1
			c0.2-0.1,0.4-0.1,0.5-0.2c0,0,0.1,0,0.1-0.1l0.1-0.9c-0.1-0.1-0.2-0.1-0.4-0.1c-0.2,0-0.4,0-0.7,0.2c-0.1,0.1-0.2,0.1-0.2,0.1
			c-0.1,0.7-0.5,0.9-0.8,1c-0.3,0.1-0.6,0.2-1.1,0.2h-4.9l0.3-1.9c0.1-0.7,0.4-1.4,0.8-2.1c0.4-0.6,1-1.3,1.7-1.7
			c0.7-0.5,1.5-0.9,2.4-1.2c1-0.3,2-0.4,3.1-0.4c1.2,0,2.2,0.2,3,0.5c0.9,0.4,1.6,0.8,2.1,1.4c0.5,0.6,0.9,1.2,1.1,1.9
			c0.2,0.7,0.2,1.4,0.2,2.2L97,50.4c0.1,0.1,0.1,0.1,0.2,0.2c0.3,0.3,0.5,0.6,0.5,1.1c0.1,0.4,0.1,1,0,1.5l-0.4,2.5h-5
			c-0.5,0-0.9-0.2-1.2-0.5c0,0,0,0,0,0c-0.3,0.1-0.5,0.3-0.8,0.4C89.6,55.8,88.9,55.9,88,55.9z M89,50c0.2,0.1,0.4,0.2,0.6,0.2
			c0.2,0,0.4,0,0.5-0.1c0.1-0.1,0.2-0.1,0.4-0.2c0,0,0,0,0,0c0,0,0,0,0,0l0.5-2.9c0,0,0,0,0,0c-0.3,0.1-0.5,0.2-0.8,0.3
			c-0.2,0.1-0.3,0.2-0.5,0.3c-0.1,0.1-0.2,0.2-0.3,0.5c-0.1,0.2-0.2,0.5-0.2,0.9l0,0.3C88.9,49.6,88.9,49.9,89,50z"/>
		<path class="st1" d="M92,36c1.1,0,2,0.1,2.8,0.4c0.8,0.3,1.4,0.7,1.8,1.2c0.5,0.5,0.8,1,1,1.7c0.2,0.6,0.2,1.2,0.1,1.9l-1.5,9.3
			c0,0.2,0,0.4,0.1,0.5c0.1,0.1,0.2,0.2,0.3,0.2c0.2,0.1,0.3,0.4,0.4,0.7c0.1,0.4,0.1,0.8,0,1.3L96.6,55h-4.4
			c-0.3,0-0.5-0.1-0.7-0.3c-0.2-0.2-0.3-0.4-0.3-0.6c-0.4,0.3-0.8,0.5-1.4,0.7c-0.5,0.2-1.1,0.3-1.9,0.3c-1.2,0-2.2-0.2-3-0.5
			c-0.7-0.3-1.3-0.8-1.6-1.3c-0.3-0.6-0.6-1.2-0.6-2c-0.1-0.7,0-1.5,0.1-2.3l0.1-0.5c0.2-1,0.5-1.8,0.9-2.4c0.4-0.6,1-1.1,1.6-1.5
			c0.6-0.4,1.4-0.7,2.2-0.8c0.8-0.2,1.7-0.4,2.6-0.5c0.3,0,0.6-0.1,0.8-0.2c0.2-0.1,0.4-0.1,0.6-0.2c0.2-0.1,0.4-0.2,0.5-0.3
			l0.2-1.2c0-0.3,0-0.5-0.2-0.7c-0.2-0.2-0.5-0.3-0.9-0.3c-0.3,0-0.7,0.1-1,0.2c-0.3,0.1-0.5,0.4-0.6,0.7c0,0.2-0.1,0.4-0.3,0.4
			c-0.2,0.1-0.4,0.1-0.8,0.1h-4.1l0.2-1c0.1-0.6,0.3-1.2,0.7-1.8c0.4-0.6,0.9-1.1,1.5-1.5c0.6-0.4,1.4-0.8,2.2-1.1
			C90,36.2,90.9,36,92,36 M91.8,45.8c-0.1,0-0.3,0.1-0.4,0.1c-0.1,0-0.2,0.1-0.4,0.1c-0.1,0-0.3,0.1-0.4,0.1
			c-0.3,0.1-0.6,0.2-0.9,0.3c-0.3,0.1-0.5,0.2-0.7,0.4c-0.2,0.2-0.4,0.4-0.5,0.7c-0.2,0.3-0.3,0.7-0.3,1.2l0,0.3
			c-0.1,0.7,0,1.2,0.3,1.5c0.3,0.2,0.7,0.4,1.1,0.4c0,0,0.1,0,0.1,0c0.3,0,0.5-0.1,0.6-0.1c0.2-0.1,0.3-0.1,0.5-0.2
			c0.1-0.1,0.2-0.2,0.3-0.3L91.8,45.8 M92,34.5c-1.2,0-2.3,0.2-3.3,0.5l0,0l0,0c-1,0.3-1.8,0.8-2.6,1.3c-0.8,0.5-1.5,1.2-1.9,2
			c-0.5,0.7-0.8,1.5-0.9,2.4l-0.2,1l-0.3,1.7h1.8h0.2c-0.8,0.5-1.5,1.1-2.1,1.9c-0.6,0.8-0.9,1.8-1.1,3l-0.1,0.5
			c-0.1,0.9-0.2,1.8-0.1,2.6c0.1,0.9,0.4,1.8,0.8,2.6c0.5,0.8,1.2,1.5,2.3,1.9c1,0.4,2.2,0.6,3.6,0.6c0.9,0,1.7-0.1,2.4-0.4
			c0.1-0.1,0.3-0.1,0.4-0.2c0.4,0.2,0.9,0.4,1.4,0.4h4.4h1.3l0.2-1.3l0.3-1.8c0.1-0.7,0.1-1.2,0-1.8c-0.1-0.6-0.3-1-0.7-1.4l1.4-8.8
			l0,0l0,0c0.1-0.9,0-1.7-0.2-2.4l0,0l0,0c-0.3-0.9-0.7-1.6-1.3-2.2c-0.6-0.6-1.4-1.1-2.4-1.5C94.4,34.7,93.3,34.5,92,34.5L92,34.5z
			 M89.6,49.4C89.6,49.4,89.7,49.3,89.6,49.4l0.1-0.4c0.1-0.4,0.1-0.6,0.2-0.6c0,0,0-0.1,0-0.1L89.6,49.4
			C89.7,49.4,89.7,49.4,89.6,49.4L89.6,49.4z"/>
	</g>
	<g>
		<path class="st2" d="M108.9,55.7c-0.8,0-1.4-0.5-1.5-1.3c-0.1-0.5-0.1-1,0-1.7l1.5-9.4c0.1-0.4,0.1-0.7,0-0.9
			c-0.1-0.2-0.1-0.3-0.3-0.5c-0.1-0.1-0.2-0.1-0.3-0.2c-0.2-0.1-0.3-0.1-0.4-0.1c-0.3,0-0.6,0.1-0.8,0.2c-0.1,0-0.1,0.1-0.2,0.1
			c0,0-1.3,8-1.3,8c0,0,0,0,0,0c0.3,0.2,0.5,0.5,0.7,0.9c0.2,0.5,0.3,1,0.2,1.6l-0.5,3.1h-9.2l0.5-3.2c0.1-0.6,0.3-1.1,0.6-1.5
			c0.3-0.4,0.5-0.7,0.9-0.9c0.1,0,0.1-0.1,0.2-0.1l0.1-0.1c0,0,0-0.1,0.1-0.2l1.3-7.9c0.1-0.4,0-0.6,0-0.6c0,0,0,0,0,0
			c0,0,0,0-0.1-0.1c-0.1-0.1-0.2-0.2-0.3-0.3c-0.4-0.3-0.5-0.7-0.4-1.2l0.7-4.2h5.4c0.3,0,0.6,0.1,0.8,0.2c0.1,0.1,0.3,0.2,0.3,0.3
			c0.1-0.1,0.3-0.1,0.4-0.1c0.3-0.1,0.6-0.2,1.2-0.3c0.4-0.1,1-0.2,1.6-0.2c1.1,0,2,0.2,2.7,0.5c0.5,0.2,1,0.5,1.3,0.9
			c0.2-0.2,0.5-0.3,0.8-0.5c0.5-0.2,1-0.5,1.6-0.6c0.7-0.2,1.4-0.3,2.2-0.3c1,0,1.9,0.1,2.7,0.4c0.9,0.3,1.6,0.8,2.1,1.4
			c0.5,0.7,0.9,1.5,1.1,2.6c0.2,1,0.1,2.3-0.1,3.8c0,0-1,6.6-1,6.6l0.1,0.2l0,0.1c0.2,0.2,0.4,0.5,0.4,0.8c0.1,0.3,0.1,0.8,0,1.4
			l-0.5,3.1h-4.9c-0.8,0-1.5-0.3-1.9-0.8c-0.5-0.6-0.6-1.3-0.4-2.2l1.5-9.1c0.1-0.7,0.1-1.3-0.1-1.6c-0.1-0.2-0.2-0.2-0.5-0.2
			c0,0-0.1,0-0.1,0c-0.1,0-0.1,0-0.2,0.1c-0.1,0-0.2,0.1-0.3,0.1l0,0l0,0c-0.1,0-0.3,0.1-0.4,0.2c-0.1,0.1-0.2,0.1-0.3,0.2
			c0,0-1.2,7.9-1.2,7.9l0,0c0.3,0.3,0.5,0.6,0.7,1c0.2,0.5,0.2,1,0.1,1.5l-0.5,3H108.9z"/>
		<path class="st1" d="M118.6,36c0.9,0,1.8,0.1,2.5,0.4c0.7,0.2,1.3,0.6,1.8,1.2c0.5,0.6,0.8,1.3,0.9,2.3c0.2,1,0.1,2.1-0.1,3.6
			l-1,6.6c0,0.2,0,0.4,0,0.5c-0.1,0.2,0,0.3,0.1,0.3c0.2,0.1,0.3,0.3,0.4,0.6c0.1,0.3,0.1,0.7,0,1.1l-0.4,2.4h-4.3
			c-0.6,0-1-0.2-1.3-0.5c-0.3-0.4-0.4-0.9-0.3-1.6l1.5-9.2c0.2-1,0.1-1.7-0.2-2.1c-0.2-0.4-0.6-0.6-1.1-0.6c-0.1,0-0.2,0-0.3,0
			c-0.2,0.1-0.4,0.1-0.6,0.2c-0.2,0.1-0.4,0.2-0.6,0.3c-0.2,0.1-0.4,0.2-0.6,0.4l-1.3,8.2c0,0.2,0,0.4,0,0.5
			c0.1,0.1,0.1,0.2,0.3,0.3c0.2,0.1,0.3,0.3,0.4,0.6c0.1,0.3,0.1,0.7,0,1.1l-0.4,2.4h-5.2c-0.4,0-0.7-0.2-0.7-0.6
			c-0.1-0.4-0.1-0.9,0-1.5l1.5-9.4c0.1-0.5,0.1-0.9,0-1.2c-0.1-0.3-0.3-0.6-0.5-0.8c-0.2-0.2-0.4-0.3-0.7-0.4
			c-0.2-0.1-0.5-0.1-0.6-0.1c-0.5,0-0.8,0.1-1.2,0.4c-0.2,0.1-0.3,0.2-0.5,0.3l-1.3,8.3c0,0.2,0,0.4,0,0.5c0.1,0.1,0.1,0.2,0.3,0.3
			c0.2,0.1,0.3,0.3,0.5,0.6c0.1,0.3,0.2,0.7,0.1,1.1l-0.4,2.4h-7.7l0.4-2.3c0.1-0.5,0.2-0.9,0.4-1.2c0.2-0.3,0.4-0.6,0.6-0.7
			c0.1-0.1,0.3-0.2,0.4-0.3c0.1-0.1,0.2-0.3,0.3-0.6l1.3-7.9c0.1-0.5,0.1-0.8,0-0.9c-0.1-0.2-0.2-0.3-0.3-0.4
			c-0.1-0.1-0.2-0.2-0.4-0.4c-0.2-0.1-0.2-0.3-0.2-0.5l0.6-3.6h4.8c0.2,0,0.3,0,0.5,0.1c0.1,0.1,0.2,0.2,0.2,0.3
			c0.1,0.1,0.1,0.2,0.1,0.3c0.3-0.1,0.6-0.3,1-0.4c0.3-0.1,0.7-0.2,1.1-0.3c0.4-0.1,0.9-0.1,1.5-0.1c1,0,1.8,0.1,2.4,0.4
			c0.7,0.3,1.2,0.7,1.5,1.2c0.3-0.3,0.7-0.6,1.2-0.8c0.4-0.2,0.9-0.4,1.5-0.6C117.2,36.1,117.8,36,118.6,36 M118.6,34.5
			c-0.9,0-1.7,0.1-2.4,0.3c-0.6,0.2-1.2,0.4-1.7,0.7c-0.1,0.1-0.3,0.1-0.4,0.2c-0.3-0.2-0.7-0.4-1.1-0.6c-0.8-0.4-1.8-0.6-3-0.6
			c-0.7,0-1.3,0.1-1.8,0.2c-0.5,0.1-0.9,0.2-1.2,0.4c0,0,0,0,0,0l-0.1-0.1l-0.1,0c-0.4-0.2-0.7-0.3-1.1-0.3h-4.8h-1.3L99.3,36
			l-0.6,3.6c-0.1,0.8,0.1,1.5,0.7,1.9c0.1,0,0.1,0.1,0.1,0.1c0,0,0,0.1,0,0.2l-1.2,7.7l0,0c-0.5,0.3-0.8,0.7-1.1,1.1
			c-0.4,0.5-0.6,1.1-0.7,1.8l-0.4,2.3l-0.3,1.7h1.8h7.7h1.3l0.2-1.2l0,0c0.3,0.8,1.1,1.3,2,1.3h5.2h1.3l0.2-1.3l0.1-0.6
			c0.1,0.3,0.2,0.5,0.4,0.7c0.6,0.7,1.4,1.1,2.5,1.1h4.3h1.3l0.2-1.3l0.4-2.4c0.1-0.7,0.1-1.3-0.1-1.8c-0.1-0.2-0.2-0.5-0.3-0.7
			l0-0.1l-0.2-0.3l1-6.3c0.3-1.6,0.3-2.9,0.1-4c-0.2-1.2-0.6-2.2-1.3-3c-0.7-0.8-1.5-1.4-2.5-1.7C120.7,34.6,119.7,34.5,118.6,34.5
			L118.6,34.5z M107.6,42.6c0.1,0,0.2-0.1,0.3-0.1c0,0,0.1,0,0.2,0c0,0,0,0,0.1,0c0,0,0,0.1,0,0.1c0,0,0,0.2,0,0.6l-1.2,7.4
			c-0.2-0.3-0.4-0.6-0.6-0.8L107.6,42.6L107.6,42.6z M116.4,42.8c0.1-0.1,0.2-0.1,0.3-0.1l0.1,0l0.1,0c0,0,0.1,0,0.1,0c0,0,0,0,0,0
			c0,0.1,0.1,0.4,0,0.9l-1.2,7.3c-0.1-0.3-0.3-0.6-0.5-0.8L116.4,42.8L116.4,42.8z"/>
	</g>
	<g>
		<path class="st2" d="M121,65.2l0.6-3.7c0.1-0.6,0.3-1.1,0.6-1.4c0.3-0.3,0.5-0.5,0.8-0.7c0.1,0,0.1-0.1,0.2-0.2c0,0,0-0.1,0.1-0.2
			l2.8-17.8c0,0,0-0.1,0-0.1c0,0,0,0,0,0c-0.3-0.2-0.5-0.5-0.7-0.8c-0.2-0.5-0.3-1-0.2-1.6l0.5-3.3h6c0.2,0,0.6,0,0.8,0.2
			c0.1,0.1,0.2,0.2,0.3,0.3c0.2-0.1,0.4-0.2,0.7-0.3c0.7-0.2,1.6-0.3,2.6-0.3c1,0,1.9,0.2,2.6,0.6c0.7,0.4,1.2,0.9,1.6,1.7
			c0.3,0.6,0.5,1.4,0.6,2.4c0,0.8,0,1.7-0.2,2.8l-0.9,5.9c-0.2,1-0.4,2-0.8,2.8c-0.4,0.9-0.8,1.7-1.4,2.4c-0.6,0.7-1.3,1.2-2.2,1.6
			c-0.8,0.3-1.7,0.5-2.7,0.5c-0.1,0-0.2,0-0.3,0c-0.5,0-0.9-0.1-1.2-0.1l-0.3-0.1c-0.2,0-0.4-0.1-0.5-0.1c0,0,0,0-0.1,0
			c0,0-0.6,3.9-0.6,4l0,0.1c0.3,0.2,0.5,0.5,0.7,0.9c0.2,0.5,0.3,1,0.2,1.6l-0.5,3.2H121z M131.6,49.8c0,0,0.1,0,0.2,0
			c0.1,0,0.2,0,0.3,0c0.2-0.1,0.4-0.2,0.6-0.3c0.2-0.1,0.3-0.3,0.3-0.4c0.1-0.2,0.2-0.4,0.2-0.5l1-6.1c0.1-0.3,0.1-0.7-0.1-0.8
			c-0.1-0.1-0.3-0.2-0.7-0.2c-0.1,0-0.2,0-0.3,0c-0.1,0-0.1,0-0.2,0.1c-0.1,0-0.2,0.1-0.2,0.1l-1.3,8.2
			C131.5,49.8,131.5,49.8,131.6,49.8z"/>
		<path class="st1" d="M136.3,36.1c0.9,0,1.7,0.2,2.3,0.5c0.6,0.3,1,0.8,1.3,1.4c0.3,0.6,0.5,1.3,0.5,2.1c0,0.8,0,1.7-0.2,2.6
			l-0.9,5.9c-0.2,1-0.4,1.8-0.7,2.7c-0.3,0.8-0.8,1.5-1.3,2.1c-0.5,0.6-1.2,1-1.9,1.4c-0.7,0.3-1.5,0.4-2.4,0.4c-0.1,0-0.2,0-0.3,0
			c-0.4,0-0.8-0.1-1.1-0.1c-0.3-0.1-0.6-0.1-0.9-0.2c-0.3-0.1-0.5-0.1-0.8-0.2l-0.8,4.8c0,0.3,0,0.4,0,0.5s0.1,0.2,0.3,0.3
			c0.2,0.1,0.3,0.3,0.5,0.6c0.1,0.3,0.2,0.7,0.1,1.1l-0.4,2.6h-7.7l0.4-2.8c0.1-0.4,0.2-0.8,0.5-1.1c0.2-0.3,0.5-0.5,0.7-0.6
			c0.1-0.1,0.3-0.2,0.4-0.3c0.1-0.1,0.2-0.3,0.2-0.5l2.8-17.8c0-0.3,0-0.4,0-0.5c-0.1-0.1-0.1-0.2-0.3-0.3c-0.2-0.1-0.3-0.3-0.5-0.6
			c-0.1-0.3-0.2-0.6-0.1-1.1l0.4-2.7h5.4c0.2,0,0.3,0,0.4,0.1c0.1,0.1,0.2,0.2,0.3,0.3c0.1,0.1,0.2,0.2,0.2,0.3
			c0.1-0.1,0.5-0.3,1.2-0.5C134.5,36.2,135.3,36.1,136.3,36.1 M131.8,50.6c0.2,0,0.4,0,0.5-0.1c0.3-0.1,0.5-0.2,0.8-0.4
			c0.2-0.2,0.4-0.4,0.6-0.7c0.1-0.3,0.2-0.5,0.3-0.8l1-6.1c0.1-0.7,0-1.2-0.4-1.5c-0.3-0.2-0.7-0.4-1.2-0.4c-0.1,0-0.2,0-0.4,0
			c-0.2,0-0.3,0.1-0.4,0.1s-0.2,0.1-0.3,0.2c-0.1,0.1-0.2,0.1-0.3,0.2l-1.4,8.8c0,0,0,0.1,0.1,0.2c0,0,0.1,0.1,0.2,0.2
			c0.1,0.1,0.3,0.1,0.5,0.1C131.6,50.5,131.7,50.6,131.8,50.6 M136.3,34.6c-1.1,0-2.1,0.1-2.8,0.4c-0.1,0-0.3,0.1-0.4,0.1
			c0,0,0,0,0,0c-0.4-0.3-0.9-0.4-1.3-0.4h-5.4h-1.3l-0.2,1.3l-0.4,2.7c-0.1,0.8,0,1.5,0.2,2l0,0.1l0,0.1c0.2,0.3,0.4,0.5,0.5,0.7
			l-2.8,17.3c-0.3,0.2-0.6,0.5-0.9,0.8c-0.4,0.5-0.7,1.1-0.8,1.8l-0.4,2.8l-0.3,1.7h1.8h7.7h1.3l0.2-1.3l0.4-2.6
			c0.1-0.8,0-1.4-0.2-2l0-0.1l0-0.1c-0.2-0.3-0.4-0.6-0.6-0.8l0.5-2.8l0.1,0c0.4,0.1,0.8,0.1,1.3,0.2l0,0l0,0c0.1,0,0.2,0,0.3,0
			c1.1,0,2.1-0.2,2.9-0.5l0,0l0,0c1-0.4,1.8-1,2.5-1.7c0.7-0.7,1.2-1.6,1.6-2.6c0.4-0.9,0.6-1.9,0.8-3l0.9-5.9
			c0.2-1.2,0.2-2.1,0.2-2.9c0-1-0.3-1.9-0.7-2.7c-0.4-0.8-1-1.5-1.9-2C138.5,34.8,137.5,34.6,136.3,34.6L136.3,34.6z M133.4,42.2
			C133.4,42.2,133.4,42.2,133.4,42.2C133.4,42.2,133.5,42.2,133.4,42.2c0.1,0,0.1,0.1,0.1,0.1l-1,6.1c0,0.1,0,0.1-0.1,0.3
			L133.4,42.2L133.4,42.2z"/>
	</g>
</g>
</svg>
